<?xml version="1.0" standalone="no"?>
<!DOCTYPE svg PUBLIC "-//W3C//DTD SVG 1.1//EN" "http://www.w3.org/Graphics/SVG/1.1/DTD/svg11.dtd" >
<svg xmlns="http://www.w3.org/2000/svg">
<metadata></metadata>
<defs>
<font id="snowyplain" horiz-adv-x="1413" >
<font-face units-per-em="2048" ascent="1638" descent="-410" />
<missing-glyph horiz-adv-x="1024" />
<glyph unicode="&#xd;" horiz-adv-x="1024" />
<glyph unicode=" "  horiz-adv-x="1024" />
<glyph unicode="&#x09;" horiz-adv-x="1024" />
<glyph unicode="&#xa0;" horiz-adv-x="1024" />
<glyph unicode="!" horiz-adv-x="779" d="M27 1473q0 44 70.5 55t113.5 18q73 36 137 56.5t135 20.5q61 0 127.5 -69t66.5 -113q0 -29 -13.5 -46t-34.5 -17h-10v-878h-468v900q-41 0 -82.5 18.5t-41.5 54.5zM54 1471q0 -27 38.5 -40.5t72.5 -13.5q9 0 61.5 11t66.5 11q39 0 69.5 -94.5t44.5 -94.5q31 0 63 91 t49 91q26 0 54.5 -17.5t52.5 -17.5q22 0 26.5 14t4.5 28q0 41 -57 99.5t-114 58.5q-83 0 -148.5 -27t-116.5 -48q-61 -5 -114 -12.5t-53 -38.5zM172 204q0 94 64.5 160t153.5 66q90 0 156 -68q68 -63 68 -158q0 -90 -65.5 -157t-158.5 -67q-44 0 -82 15t-73 49 q-63 72 -63 160z" />
<glyph unicode="&#x22;" horiz-adv-x="971" d="M65 1470q0 39 27 57t78 36.5t93.5 32t59.5 13.5q39 0 70.5 -40t31.5 -81q1 -63 -30 -63v-197l-85 -265h-111l-87 265v179q-20 9 -33.5 24t-13.5 39zM78 1468q0 -27 27.5 -40.5t50.5 -13.5q7 0 34.5 21t41 27t45 12t41.5 6q14 0 35 -18t38 -18q15 0 16 14q5 15 5 29 q0 37 -26.5 68.5t-65.5 31.5q-29 0 -82 -17t-66 -20q-43 -19 -68.5 -34.5t-25.5 -47.5zM551 1459q0 39 27.5 57t78.5 37t93.5 32.5t59.5 13.5q39 0 70.5 -40t31.5 -81q0 -63 -31 -63l-2 -187l-86 -265h-111l-87 265v170q-19 9 -31.5 23.5t-12.5 37.5zM565 1458q0 -27 27 -41 t51 -14q7 0 34 21.5t40.5 27.5t45 12t42.5 6q14 0 35 -18t38 -18q15 0 15 14q2 5 2 28q0 39 -25 70t-64 31q-29 0 -81.5 -17t-66.5 -21q-43 -19 -68 -34t-25 -47z" />
<glyph unicode="#" horiz-adv-x="1137" d="M24 294v230h229l50 255h-196v233h242l54 294q-29 7 -51 23t-22 49q0 39 27 57t78 36.5t94 32t60 13.5q39 0 70.5 -40t31.5 -80q0 -63 -31 -63q-12 -1 -32 6l-63 -328h206l62 320q-31 12 -42.5 28t-11.5 38q0 39 27 57t78.5 36.5t94 32.5t59.5 14q39 0 70.5 -40t31.5 -81 q0 -63 -31 -63q-9 0 -24 4t-30 11l-68 -357h165v-233h-201l-49 -255h192v-230h-242l-70 -355h-217l69 355h-209l-64 -355h-218l66 355h-185zM344 1376q0 -27 27 -40.5t51 -13.5q7 0 34 21t40.5 27t45 12t41.5 6q14 0 35.5 -18t38.5 -18q15 0 15 14q5 15 5 29 q0 37 -26.5 68.5t-65.5 31.5q-29 0 -81.5 -17t-66.5 -20q-43 -19 -68 -34.5t-25 -47.5zM471 524h209l53 255h-212zM793 1397q0 -27 27 -41t51 -14q7 0 34 21.5t40.5 27.5t45 11.5t42.5 5.5q14 0 35 -17.5t38 -17.5q15 0 15 13q5 15 5 29q0 37 -26.5 69t-65.5 32 q-29 0 -81.5 -17t-66.5 -21q-43 -19 -68 -34t-25 -47z" />
<glyph unicode="$" horiz-adv-x="1257" d="M82 235l88 270q99 -54 182 -92q90 -36 163 -35q156 0 157 74q0 51 -166 99t-280.5 130.5t-114.5 286.5q0 162 107 281l32 34q-39 9 -66.5 23t-27.5 36q0 48 89.5 70t154.5 30q43 3 71.5 6t43.5 5v195h159v-173q43 7 78 7q92 0 163.5 -40t71.5 -81q0 -19 -9 -33 q58 -26 102 -52l-88 -281q-70 39 -165 63q-95 29 -186 29q-19 0 -35 -3.5t-33 -18.5q-24 -17 -24 -55q0 -63 175.5 -106t292 -119.5t116.5 -291.5q0 -162 -117.5 -281.5t-333.5 -145.5v-328h-163v323q-63 7 -118.5 20.5t-143 50t-175.5 103.5zM189 1340q0 -10 52.5 -28.5 t73 -29.5t44.5 -39t32 -28q5 0 53 58.5t80 58.5q39 0 93.5 -45t110.5 -91q24 0 84.5 60.5t95.5 60.5q37 0 38 13q9 14 8 29q0 37 -59.5 67t-147.5 30q-56 0 -135.5 -8.5t-208.5 -25.5q-102 -19 -158 -34.5t-56 -47.5z" />
<glyph unicode="%" horiz-adv-x="1301" d="M65 1245q0 19 49 91t74.5 87.5t53.5 25.5t64 10q37 0 56 -2.5t45 -2.5q77 0 133.5 -63t56.5 -102q-2 -2 -9.5 -6t-9.5 -4q14 -34 21.5 -76.5t7.5 -67.5q0 -124 -70.5 -215.5t-198.5 -91.5t-199 89.5t-71 213.5q0 24 2.5 50.5t9.5 53.5q-15 5 -15 10zM78 1249l5 -4 q17 0 77.5 72.5t70 78.5t21.5 6q10 0 20 -14t26 -14q17 0 53.5 12t48.5 12q14 0 29 -46.5t32 -46.5q12 0 23 21t23 21q14 0 38.5 -26.5t29.5 -26.5l7 6q0 31 -51 87.5t-128 56.5q-32 0 -47.5 2t-49.5 2q-27 0 -48.5 -5.5t-55.5 -25t-79 -84t-45 -84.5zM134 0l858 1495h180 l-873 -1495h-165zM257 1131q0 -51 20 -95q20 -37 61 -38q39 0 55.5 30t21.5 53t5 50q0 60 -21 99t-61 39q-39 0 -60 -39t-21 -99zM677 413q0 19 49.5 91.5t75 87.5t53.5 25.5t64 10.5q37 0 55.5 -2.5t44.5 -2.5q77 0 133.5 -63t56.5 -102q-2 -2 -9 -6.5t-9 -4.5 q14 -34 21.5 -76.5t7.5 -67.5q0 -124 -71 -215t-198 -91q-128 0 -199.5 89t-71.5 213q0 24 3 50.5t9 53.5q-15 5 -15 10zM691 417l5 -4q17 0 77 72.5t69.5 78.5t21.5 6q10 0 20.5 -13.5t25.5 -13.5q17 0 53.5 11.5t48.5 11.5q14 0 29 -46.5t32 -46.5q12 0 23 21t23 21 q14 0 38.5 -26t29.5 -26l7 5q0 31 -51 87.5t-128 56.5q-32 0 -47 2t-49 2q-27 0 -48.5 -5t-55.5 -25t-79 -84.5t-45 -84.5zM869 299q0 -51 21 -95q20 -37 61 -37q39 0 55 29.5t21.5 52.5t5.5 50q0 60 -21.5 99t-60.5 39t-60.5 -39t-21.5 -99z" />
<glyph unicode="&#x26;" horiz-adv-x="1692" d="M49 381q0 167 77.5 251t246.5 195q-37 44 -62 79t-47 77.5t-22 127.5q0 139 131.5 253t356.5 114q202 0 329.5 -96t127.5 -251q0 -119 -49 -173q-48 -48 -204 -179l143 -156q29 17 50 31t48 38l82 65l279 -274q-15 -17 -40 -38t-59 -47l-93 -75l274 -323h-516l-107 114 q-43 -24 -91 -46t-136.5 -51t-264.5 -29q-191 0 -322.5 110.5t-131.5 282.5zM529 475q0 -41 31.5 -67.5t85.5 -26.5q57 0 91 32l-143 160q-39 -26 -52 -44.5t-13 -53.5zM640 1155q0 -22 2.5 -32.5t10.5 -27.5q19 -27 68 -74q43 22 72.5 54t29.5 71q0 34 -26 56.5t-72 22.5 q-34 0 -59.5 -19t-25.5 -51z" />
<glyph unicode="'" horiz-adv-x="520" d="M65 1470q0 39 27 57t78 36.5t93.5 32t59.5 13.5q39 0 70.5 -40t31.5 -81q1 -63 -30 -63v-197l-85 -265h-111l-87 265v179q-20 9 -33.5 24t-13.5 39zM78 1468q0 -27 27.5 -40.5t50.5 -13.5q7 0 34.5 21t41 27t45 12t41.5 6q14 0 35 -18t38 -18q15 0 16 14q5 15 5 29 q0 37 -26.5 68.5t-65.5 31.5q-29 0 -82 -17t-66 -20q-43 -19 -68.5 -34.5t-25.5 -47.5z" />
<glyph unicode="(" horiz-adv-x="683" d="M94 541q0 192 39 330.5t63.5 204t74.5 156.5t159 263h204q-63 -109 -112 -220.5t-107.5 -299t-58.5 -419.5q0 -250 76.5 -512t201.5 -457h-204q-49 82 -100 171t-102 192t-82.5 217.5t-41.5 194.5t-10 179z" />
<glyph unicode=")" horiz-adv-x="683" d="M58 -413q117 180 197 444.5t80 524.5q0 243 -73 477t-204 462h204q48 -73 93.5 -155.5t92.5 -170t99 -257.5t52 -371q0 -189 -40 -338.5t-93.5 -254t-96 -179.5t-107.5 -182h-204z" />
<glyph unicode="*" horiz-adv-x="799" d="M49 1175l53 148l209 -78v250h160v-250l204 78l55 -148l-221 -78l159 -195l-132 -111l-152 196l-139 -196l-131 111l156 195z" />
<glyph unicode="+" horiz-adv-x="1195" d="M119 352v247h373v372h245v-372h374v-247h-374v-372h-245v372h-373z" />
<glyph unicode="," horiz-adv-x="733" d="M17 -163l213 564h410l-381 -564h-242z" />
<glyph unicode="-" horiz-adv-x="683" d="M70 425v279h556v-279h-556z" />
<glyph unicode="." horiz-adv-x="709" d="M100 367q0 41 37.5 63t94.5 36t129.5 30t96.5 16q61 0 110 -47.5t49 -90.5q0 -29 -13.5 -46t-33.5 -17h-7q7 -17 12 -39t5 -44q0 -94 -65.5 -158.5t-160.5 -64.5q-88 0 -154.5 64.5t-66.5 158.5q0 37 10 71q-22 15 -32.5 30.5t-10.5 37.5zM117 366q0 -29 33.5 -57 t62.5 -28q10 0 40.5 36.5t57.5 46t76.5 21t68.5 11.5q15 0 51.5 -33t58.5 -33t26.5 14.5t4.5 28.5q0 39 -41 78t-98 39q-32 0 -107 -16t-118 -25q-51 -15 -83.5 -32t-32.5 -51z" />
<glyph unicode="/" horiz-adv-x="573" d="M17 0l429 1495h132l-430 -1495h-131z" />
<glyph unicode="0" d="M43 1002q0 53 120.5 229t187.5 216.5t134.5 63.5t154.5 23q66 0 116 -6t130 -6q191 0 331 -157t140 -249q0 -7 -10 -12t-36 -14q39 -90 56.5 -188.5t17.5 -171.5q0 -303 -176 -528.5t-493 -225.5q-310 0 -486.5 222t-176.5 527q0 138 30 250q-12 3 -26 8t-14 19zM75 1017 q0 -15 17 -15q46 0 193 181t161.5 188t28 14.5t32.5 7.5q26 0 52 -33t60 -33q39 0 126.5 27t123.5 27q37 0 74.5 -114.5t78.5 -114.5q27 0 54.5 53.5t58.5 53.5q32 0 95 -66.5t76 -66.5q12 0 12 14q0 116 -145.5 236.5t-293.5 120.5q-90 0 -128 4t-111 4q-83 0 -142 -20 t-129.5 -62t-182 -197.5t-111.5 -208.5zM515 725q0 -136 52 -234t149 -98q99 0 152.5 99t53.5 233q0 141 -54 239q-49 100 -152 101q-95 0 -148 -100.5t-53 -239.5z" />
<glyph unicode="1" d="M260 1456q0 12 14.5 41t19.5 48.5t13 29t26 9.5q20 0 75 -31t97 -31q19 0 78.5 41t90.5 41q116 0 201.5 -58t85.5 -202q0 -10 -1 -25.5t-19 -15.5q-10 0 -17 14q-7 20 -9 27l-2 -1344h-462v1097h-148v264l-12 7q-31 31 -31 88zM272 1454q0 -49 21.5 -72t70.5 -23 q15 0 66 44.5t77 44.5q54 0 92 -96.5t58 -96.5q102 0 164 52t84 52t27 -22t7 -22q12 0 12 29q0 133 -84.5 191.5t-191.5 58.5q-24 0 -86.5 -41t-83.5 -41q-41 0 -94.5 30.5t-72.5 30.5q-14 0 -21 -4t-12.5 -27t-19 -50t-13.5 -38z" />
<glyph unicode="2" d="M87 0v238q296 202 504 421.5t208 367.5q0 139 -131 140q-68 0 -96 -53.5t-28 -142.5h-413q0 111 51 213q-32 17 -52.5 33t-20.5 38q0 15 33 76.5t71 131.5q12 32 23.5 42.5t42.5 10.5t133 -11.5t149 -11.5q31 0 131.5 48.5t144.5 48.5q138 0 284 -130t146 -203 q0 -35 -10 -42q34 -78 34 -174q0 -145 -68 -258t-154 -187.5t-295 -231.5h517v-364h-1204zM134 1254q0 -26 14.5 -36t43.5 -10q5 0 61.5 6t86.5 6q26 0 104 91.5t119 91.5q88 0 137.5 -125t83.5 -125q48 0 187.5 65t200.5 65q29 0 37 -19q5 -22 12 -43q22 0 22 36 q0 68 -137.5 188t-266.5 120q-43 0 -146.5 -47t-131.5 -47q-75 0 -160.5 11t-107.5 11q-31 0 -39.5 -6.5t-17.5 -37.5q-46 -80 -74 -129t-28 -66z" />
<glyph unicode="3" d="M107 446h414q0 -117 122 -118q122 0 122 143q0 90 -42 118q-48 26 -141 25v291q94 0 138.5 24.5t44.5 91.5q0 63 -28 91q-26 31 -94 31q-61 0 -87.5 -33t-26.5 -89h-415q0 143 77 258q-51 43 -52 95q0 49 40 62q17 9 81.5 60.5t130.5 51.5q2 0 70 -14.5t114 -14.5 q58 0 207.5 13t154.5 13q94 0 173 -79.5t79 -126.5q0 -19 -13.5 -32.5t-39.5 -13.5q56 -90 56 -216q0 -63 -13.5 -107.5t-58.5 -92t-162 -95.5q107 -27 193 -108.5t86 -231.5q0 -213 -147.5 -337.5t-426.5 -124.5q-281 0 -418.5 140t-137.5 326zM163 1376q0 -44 35 -79 t95 -35q32 0 43 69t43 81q29 15 60 15q34 0 57.5 -47.5t49.5 -47.5q14 0 70 50t78 52.5t36 2.5q36 0 87 -22t107 -46q31 0 80 -21t98 -43q10 0 29 1.5t25.5 9t6.5 24.5q0 34 -75.5 108t-150.5 74q-29 0 -172.5 -11t-187.5 -11q-63 0 -117.5 15.5t-66.5 15.5 q-63 0 -116.5 -46t-83.5 -60.5t-30 -48.5z" />
<glyph unicode="4" d="M70 259v331l430 786l-17 12q-43 31 -42 88q0 14 20 42t26 48.5t18 29t38 8.5q29 0 103.5 -30.5t135.5 -30.5q26 0 111 40.5t126 40.5q117 0 185 -68t68 -149q0 -19 -8.5 -37.5t-28.5 -18.5q-14 0 -19 17t-8 34l-7 -4v-779h155v-360h-155v-259h-456v259h-675zM469 1475 q0 -44 38.5 -72.5t82.5 -28.5q31 0 80.5 26.5t88.5 26.5q77 0 126.5 -86t78.5 -86q41 0 103 84.5t113 84.5q34 0 40 -25t12 -25q12 0 13.5 3.5t1.5 25.5q0 63 -59 131t-166 68q-32 0 -122 -40.5t-118 -40.5q-56 0 -127.5 30.5t-98.5 30.5t-35.5 -4.5t-14.5 -24t-21.5 -43 t-15.5 -35.5zM536 619h209v414z" />
<glyph unicode="5" d="M134 73l43 337q26 -10 82.5 -28t100 -30t155.5 -12q133 0 210.5 44.5t77.5 151.5q0 114 -78.5 164t-215.5 50q-26 0 -46.5 -1t-66.5 -6t-68 -7.5t-75 -14.5l58 468l-37 15q-48 15 -79.5 58t-31.5 89q0 53 31.5 67t97 74.5t133.5 60.5q2 0 72.5 -25.5t119.5 -25.5 q53 0 210.5 23t172.5 23q105 0 182 -40t72 -83q0 -15 -2 -34.5t-34 -19.5h-7q-13 -5 -44 -5v-248h-471l-12 -131l98 5q199 0 339.5 -115t140.5 -368q0 -260 -186 -396.5t-465 -136.5q-151 0 -236.5 20.5t-133 36t-107.5 40.5zM134 73l43 337zM192 1352q0 -53 34 -93.5 t97 -40.5q32 0 41.5 94.5t38.5 108t39 16t31 2.5q37 0 62 -31.5t52 -31.5q17 0 75 19.5t106 27.5t125 13.5t122 5.5q34 0 72.5 -17t77.5 -35q49 0 50 7q7 14 6 28q0 39 -58.5 71.5t-155.5 32.5q-26 0 -186.5 -23t-203.5 -23q-66 0 -122 25t-66 25q-66 0 -122.5 -54.5 t-85.5 -68t-29 -58.5z" />
<glyph unicode="6" d="M119 500q0 162 82.5 328.5t337.5 542.5h-5q-12 0 -15.5 7.5t-3.5 46.5q0 41 39.5 82t93.5 41q20 0 98.5 -23t102.5 -23q31 0 61.5 25.5t38.5 25.5q51 0 82.5 -24t61.5 -50t30 -77q0 -46 -32.5 -113.5t-63.5 -84.5l-35 -27l-26 48q0 22 -4.5 45t-7.5 35l-265 -380l97 5 q196 0 348 -106t152 -353q0 -233 -156.5 -372.5t-445.5 -139.5q-260 0 -412.5 154t-152.5 387zM534 1425l2 -28q0 -5 7.5 -9.5t14.5 -4.5q3 0 33 29.5t50 29.5t61 -5.5t69 -14t57 -27.5t38 -19q12 0 25.5 31.5t33.5 31.5q14 0 32.5 -15.5t24 -110.5t22.5 -95q34 0 68.5 66.5 t34.5 118.5q0 41 -29.5 69t-58.5 44.5t-72 16.5q-5 0 -34.5 -25t-63.5 -25q-31 0 -111 23t-92 23q-51 0 -81.5 -32t-30.5 -72zM544 463q0 -60 40 -104t112 -44q71 0 104 34t42.5 57t9.5 57q0 63 -41.5 109.5t-114.5 46.5q-71 0 -102 -35t-40.5 -60.5t-9.5 -60.5z" />
<glyph unicode="7" d="M-39 1298q0 14 8.5 46t8.5 47q0 53 52.5 71t80 73t122.5 55q66 -17 134 -34t136 -17q75 0 296.5 23t244.5 23q146 0 254.5 -40.5t108.5 -83.5q0 -48 -35 -71.5t-96 -23.5l-681 -1366h-466l545 1097h-541v129l-19 -11l-95 27q-32 7 -45 21t-13 35zM5 1305q0 -24 17 -37 t65 -13q41 0 61 79.5t56 91t48.5 14t43.5 2.5q53 0 83.5 -88t69.5 -88q17 0 103 75.5t224.5 92.5t288.5 17q46 0 102 -18t114 -36q37 0 63.5 24.5t26.5 43.5q0 37 -90 69.5t-226 32.5q-51 0 -268 -23t-284 -23q-77 0 -140.5 16t-127.5 33q-87 0 -100.5 -49.5t-64.5 -66.5 t-51 -61q0 -15 -7 -45.5t-7 -42.5z" />
<glyph unicode="8" d="M114 393q0 158 64.5 235.5t173.5 128.5q-97 66 -143 127.5t-46 200.5q0 95 53 170l-8 4q-26 0 -31 12t-5 42q0 48 102 150t185 102q31 0 155 -23t163 -23q49 0 98.5 25.5t61.5 25.5q60 0 157 -88.5t117.5 -100.5t20.5 -64q-1 -58 -38 -106q27 -63 27 -126 q0 -134 -51.5 -202t-148.5 -126q109 -46 178.5 -122.5t69.5 -241.5q0 -179 -160 -302t-420 -123q-255 0 -415 124t-160 301zM201 1313q5 -19 5 -29q0 -3 10 -8t26 -5q36 22 71.5 40.5t59.5 18.5q15 0 132.5 53.5t152.5 53.5q39 0 76.5 -46t49.5 -46q22 0 43.5 31.5 t51.5 31.5q22 0 44.5 -11.5t85.5 -112t88 -100.5q53 0 82 40t29 94q0 44 -23 57t-109 94t-140 81q-12 0 -58 -25t-101 -25q-43 0 -177 23t-146 23q-77 0 -165 -93.5t-88 -139.5zM561 446q0 -68 33 -111q36 -41 95 -41q54 0 93 41q38 46 38 111q0 58 -36 107t-95 49 q-60 0 -94 -44t-34 -112zM594 1056q0 -39 25.5 -70.5t64.5 -31.5q43 0 70.5 30.5t27.5 71.5q0 48 -28 79.5t-70 31.5q-34 0 -62 -31.5t-28 -79.5z" />
<glyph unicode="9" d="M34 1306q0 51 31.5 66.5t97 76t133.5 60.5q15 0 88.5 3.5t134.5 3.5q58 0 207.5 38t178.5 38q99 0 219.5 -117.5t120.5 -168.5q0 -29 -5 -41.5t-32 -12.5q87 -124 86 -294q0 -134 -46.5 -252.5t-174.5 -310.5l-262 -395h-467l345 495q-253 0 -374 92.5t-161 175 t-40 195.5q0 109 34 200q-51 15 -82.5 58.5t-31.5 89.5zM63 1308q0 -53 34 -93.5t97 -40.5q34 0 56 69.5t57 85t62 15.5q37 0 63.5 -31.5t52.5 -31.5q14 0 56 44t95 52.5t128 14.5t122 6q34 0 113 -44t163 -90q15 0 28.5 4t13.5 9q7 14 7 29q0 46 -106.5 150t-196.5 104 q-34 0 -185 -35t-201 -35q-73 0 -126.5 -4t-96.5 -8q-68 0 -125 -50t-84 -63t-27 -57zM553 975q0 -60 40 -104t111 -44t104.5 34t43 57t9.5 57q0 60 -40 108t-117 48q-71 0 -101.5 -35t-40 -60t-9.5 -61z" />
<glyph unicode=":" horiz-adv-x="709" d="M78 347q0 41 37.5 63t94.5 35.5t129.5 30t95.5 16.5q61 0 110.5 -48t49.5 -90q0 -56 -44 -63q19 -43 19 -90q0 -94 -64 -159.5t-162 -65.5q-88 0 -155 68t-67 157q0 36 11 69q-22 15 -38.5 31.5t-16.5 45.5zM90 919q0 41 37.5 63t94.5 35.5t129.5 29.5t95.5 16 q61 0 110.5 -47.5t49.5 -90.5q0 -29 -13.5 -46t-33.5 -17h-7q7 -17 12 -39t5 -44q0 -94 -65.5 -158.5t-160.5 -64.5q-88 0 -155 65t-67 158q0 37 11 71q-22 15 -32.5 30.5t-10.5 38.5zM95 345q0 -29 33.5 -57t62.5 -28q10 0 40.5 36.5t57.5 46t76.5 21.5t68.5 12 q15 0 51.5 -33t58.5 -33t26.5 14t4.5 28q0 41 -40 81t-96 40q-34 0 -122.5 -19t-108.5 -22q-46 -14 -79.5 -33.5t-33.5 -53.5zM107 917q0 -29 33.5 -57t61.5 -28q10 0 41 36.5t58 46t76.5 21t68.5 11.5q15 0 51.5 -33t58.5 -33t26.5 14.5t4.5 28.5q0 39 -41 78t-99 39 q-32 0 -107 -16t-117 -25q-51 -15 -83.5 -32t-32.5 -51z" />
<glyph unicode=";" horiz-adv-x="779" d="M17 -168l216 578h418l-384 -578h-250zM179 915q0 41 37 63t94 35.5t129.5 30t96.5 16.5q61 0 110.5 -48t49.5 -90q0 -29 -14 -46t-34 -17h-7q7 -17 12 -39t5 -44q0 -94 -65.5 -158.5t-160.5 -64.5q-88 0 -154.5 64.5t-66.5 158.5q0 37 10 71q-22 15 -32 30.5t-10 37.5z M196 913q0 -29 33 -57t62 -28q10 0 40.5 37t58 46t76.5 21t68 12q15 0 52 -33t59 -33t26 14.5t4 27.5q0 41 -40 81t-96 40q-34 0 -122.5 -18.5t-108.5 -22.5q-46 -14 -79 -33.5t-33 -53.5z" />
<glyph unicode="&#x3c;" horiz-adv-x="1195" d="M87 492v245l981 430v-245l-675 -308l675 -369v-245z" />
<glyph unicode="=" horiz-adv-x="1195" d="M119 107v245h992v-245h-992zM119 599v245h992v-245h-992z" />
<glyph unicode="&#x3e;" horiz-adv-x="1195" d="M90 0v245l675 369l-675 308v245l983 -430v-245z" />
<glyph unicode="?" horiz-adv-x="1302" d="M70 1027q0 167 134 301q-29 15 -46 30.5t-17 32.5q0 39 69 57t199 37t238 32.5t146 13.5q102 0 233.5 -70.5t131.5 -111.5t-44 -56q102 -117 102 -293q0 -192 -109.5 -307t-274.5 -115v-69h-407v294h148q48 0 81 11t70.5 48.5t37.5 137.5q0 172 -143 172 q-73 0 -104.5 -35.5t-31.5 -109.5h-413zM185 1395q0 -31 94.5 -78.5t138.5 -47.5q15 0 49.5 52t79.5 61t124 14.5t113 5.5t117.5 -62.5t125.5 -62.5q19 0 43.5 14t26.5 20q15 24 15 36q0 37 -116.5 98.5t-211.5 61.5q-46 0 -206.5 -25.5t-207.5 -29.5t-116 -14.5t-69 -42.5z M401 197q0 90 65 157.5t157 67.5q90 0 155.5 -66.5t65.5 -158.5q0 -95 -65 -160.5t-156 -65.5q-88 0 -155 67t-67 159z" />
<glyph unicode="@" horiz-adv-x="1995" d="M90 515q0 405 292 721.5t712 316.5q143 0 340 -78t346 -265.5t149 -479.5q0 -213 -94.5 -362t-190.5 -199t-222 -50q-172 0 -242 140q-102 -83 -168 -118q-66 -31 -136 -30q-111 0 -223 91.5t-112 268.5q0 204 154 397t378 193q78 0 143 -40.5t82 -98.5l34 122h184 l-172 -619q0 -56 2.5 -73t12.5 -39q20 -34 75 -34q131 0 223 166t92 349q0 228 -153.5 361.5t-270.5 179t-252 45.5q-356 0 -571 -270t-215 -566q0 -310 178 -438t294.5 -170.5t240.5 -42.5q143 0 205 12t220 71l62 -165q-49 -20 -107 -39t-108 -31q-60 -10 -125 -15 t-172 -5q-350 0 -617.5 223.5t-267.5 570.5zM737 521q0 -97 44 -169.5t109 -72.5q170 0 254 145.5t84 305.5q0 63 -44 123t-123 60q-139 0 -231.5 -136.5t-92.5 -255.5z" />
<glyph unicode="A" horiz-adv-x="1702" d="M73 0l388 1223q-19 -12 -37 -12q-15 0 -23 21.5t-8 56.5q0 68 40 144t77 76q68 0 127.5 17t88.5 17q58 0 105 20.5t96 20.5q116 0 194 -117.5t78 -212.5q0 -46 -25 -46l-14 3l383 -1211h-459l-79 213h-398l-75 -213h-459zM401 1289q0 -36 4.5 -53.5t19.5 -17.5 q44 0 87.5 101t56.5 112t24 17t21 6q29 0 49.5 -33t42.5 -33q26 0 59.5 34t61.5 34q43 0 71.5 -67t55.5 -67q20 0 37.5 49t44.5 49q32 0 71.5 -100t66.5 -100q15 0 15 37q0 88 -76.5 204t-185.5 116q-58 0 -102 -21.5t-97 -21.5q-41 -3 -93.5 -17.5t-124.5 -14.5 q-34 0 -71.5 -75t-37.5 -138zM706 532h201l-102 315z" />
<glyph unicode="B" horiz-adv-x="1563" d="M34 1014q0 165 28 315.5t67 177t68 35t77 8.5q39 0 95 -6t82 -6q87 0 141 5t141 5q206 0 359 -87t153 -155l-2 -22q61 -94 62 -214q0 -129 -42 -193t-135 -105q124 -26 206.5 -117.5t82.5 -234.5q0 -197 -120 -308.5t-341 -111.5h-772v970q-22 -90 -46 -167t-50 -77 q-29 0 -41.5 79.5t-12.5 208.5zM48 1012q0 -124 9 -193t33 -69t64 162.5t82.5 328.5t76.5 176q17 9 35 14.5t35 5.5q19 0 47.5 -25.5t64.5 -25.5q44 0 127.5 29t120.5 29q44 0 76.5 -92t75.5 -92q27 0 69.5 76t74.5 76q27 0 94.5 -60.5t82.5 -60.5q11 0 11 6l-1 18 q0 53 -152 136t-344 83q-65 0 -133 -6t-148 -6q-46 0 -106.5 5.5t-65.5 5.5q-46 0 -74.5 -8t-64.5 -32.5t-63 -177t-27 -303.5zM650 376h117q54 0 88.5 27t34.5 78q0 54 -33.5 81t-89.5 27h-117v-213zM650 932h76q53 0 82 27.5t29 78.5q0 49 -30.5 79.5t-80.5 30.5h-76v-216 z" />
<glyph unicode="C" horiz-adv-x="1241" d="M53 752q0 172 71 323q-19 7 -19 36q0 54 66.5 154.5t132.5 158.5l92 88q53 39 159 39q60 0 194 12t198 12q99 0 151 -100.5t52 -215.5q0 -54 -11 -86.5t-30 -32.5q-34 0 -46.5 32.5t-29.5 110.5v-298q-36 12 -74.5 22t-126.5 10q-126 0 -193 -74.5t-67 -190.5 q0 -112 68 -187t192 -75q90 0 125 6.5t76 25.5v-507q-32 -7 -81 -11t-115 -4q-371 0 -577.5 221t-206.5 531zM116 1111q0 -29 22 -29q29 0 121.5 100.5t194.5 212.5q14 9 26.5 15.5t24.5 6.5q22 0 41.5 -31.5t40.5 -31.5q31 0 88.5 34t86.5 34q32 0 55 -65.5t51 -65.5 q17 0 51 44.5t59 44.5q43 0 68 -117t61 -117q17 0 25 29t8 84q0 112 -49.5 210t-144.5 98q-60 0 -199.5 -12t-198.5 -12q-100 0 -153 -43q-54 -60 -103.5 -103t-112.5 -138.5t-63 -147.5z" />
<glyph unicode="D" horiz-adv-x="1527" d="M65 1300q0 70 14.5 126t44 75.5t56 27t58.5 7.5q48 0 179.5 -19.5t304.5 -46t318.5 -100.5t145.5 -128l-2 -12q97 -97 149 -229t52 -271q0 -293 -197.5 -511.5t-549.5 -218.5h-522v1175q-26 0 -38.5 35t-12.5 90zM75 1298q0 -53 11 -83.5t31 -30.5t69 89t77 103.5 t45 14.5q22 0 41.5 -29.5t40.5 -29.5q26 0 87 32.5t86 32.5q32 0 59.5 -122.5t47.5 -122.5q15 0 42.5 105t58.5 105q39 0 195.5 -68.5t185.5 -68.5q22 0 22 17q0 46 -147.5 120.5t-286.5 96.5q-83 9 -187 25t-160 24.5t-92 12t-63 3.5q-29 0 -54.5 -7.5t-52.5 -25.5 t-41.5 -74t-14.5 -119zM573 458h65q131 0 205 80.5t74 191.5q0 112 -74 197t-205 85h-65v-554z" />
<glyph unicode="E" horiz-adv-x="1241" d="M37 966q0 219 9.5 342t47 148.5t66.5 34t76 8.5q39 0 95.5 -6t81.5 -6q87 0 141.5 5t141.5 5q236 0 340 -34t104 -123q0 -19 -4.5 -29t-17.5 -10q-29 0 -47 -3.5t-28 -3.5v-227h-461v-188h437v-350h-437v-175h461v-354h-910v679q-32 0 -64 87.5t-32 199.5zM51 964 q0 -104 28 -182.5t55 -78.5q24 0 43.5 161.5t42 326.5t56.5 175q17 9 34.5 14.5t34.5 5.5q19 0 48 -25.5t65 -25.5q44 0 127 29t121 29q44 0 76.5 -92t74.5 -92q34 0 63 50.5t65 50.5q31 0 73.5 7.5t52.5 7.5q11 0 11 6l-1 18q0 71 -103 102.5t-326 31.5q-65 0 -132.5 -6 t-147.5 -6q-46 0 -106.5 5.5t-65.5 5.5q-46 0 -75 -8t-63 -31t-42.5 -150.5t-8.5 -328.5z" />
<glyph unicode="F" horiz-adv-x="1182" d="M39 1345q0 51 24.5 102.5t58.5 70t44.5 22t30.5 3.5h21h40t53 -8t135.5 -32.5t201.5 -24.5q87 0 171 6t181 15q48 0 69 -13t21 -47q0 -15 -12.5 -28t-34.5 -23v-298h-473v-231h447v-359h-447v-500h-459v1262l-14 -2q-29 0 -43.5 23t-14.5 62zM49 1345q0 -78 50 -78 q31 0 57 70.5t79 70.5q63 0 102 -115.5t75 -115.5q32 0 108.5 124t125.5 124q31 0 68.5 -42.5t79.5 -42.5q32 0 72.5 31.5t65.5 31.5q14 0 31 -10t27 -10q26 0 57 16t31 40q0 49 -90 49q-10 0 -146 -9t-194 -9q-107 0 -171.5 15t-121 28t-75 16.5t-33.5 3.5h-29 q-34 0 -44.5 -3t-43.5 -21.5t-57 -67t-24 -96.5z" />
<glyph unicode="G" horiz-adv-x="1763" d="M66 1044q0 53 133.5 208.5t197.5 192.5t130 76q63 30 149 30h6q88 0 117 -6.5t120 -6.5q216 0 369 -76.5t153 -153.5q0 -10 -9 -15q14 -15 30 -35.5t35 -48.5l-446 -159q-31 51 -73 77t-129 26q-128 0 -199.5 -114.5t-71.5 -271.5q0 -163 76 -282t215 -119q73 0 111.5 16 t58.5 50v141h-165v271h638v-511q-80 -133 -253.5 -233t-389.5 -100q-376 0 -584 226t-208 538q0 134 44 263q-20 -9 -34 -8q-20 0 -21 25zM80 1044q0 -12 3.5 -12.5t10.5 -0.5q54 0 168 120.5t240 255.5q20 12 33 18t28 6q27 0 53.5 -31.5t60.5 -31.5q39 0 126.5 27 t123.5 27q37 0 74.5 -115t78.5 -115q27 0 73 99.5t77 99.5q34 0 105.5 -45t83.5 -45q6 0 6 12q0 66 -151 138.5t-354 72.5q-75 0 -120.5 7.5t-120.5 7.5q-85 0 -147 -30q-73 -46 -128 -77.5t-189.5 -184.5t-134.5 -203z" />
<glyph unicode="H" horiz-adv-x="1680" d="M97 1339q0 53 18 67t57 74.5t81 60.5q27 -17 55.5 -34t58.5 -17q32 0 125 23t103 23q60 0 87 -35t27 -81q0 -31 -3 -42.5t-19 -11.5q-5 0 -23 18.5t-23 22.5v-507h357v381q-47 26 -47 99q0 15 14.5 44t19.5 48.5t12.5 28.5t26.5 9q14 0 98 -22t115 -22q10 0 54 44.5 t70 44.5q80 0 121.5 -60.5t41.5 -123.5q0 -10 -1 -25.5t-19 -15.5q-10 0 -15.5 25.5t-22.5 25.5l-7 -1v-1380h-461v538h-357v-538h-461v1186q-37 5 -60 51.5t-23 101.5zM107 1340q0 -56 22 -100t60 -44q19 0 26.5 99.5t28 115.5t37.5 16q22 0 37.5 -31.5t30.5 -31.5 q9 0 44.5 19.5t64 27.5t73 14t73.5 6q20 0 41 -16q20 -19 41 -37q14 0 13 10v32q0 43 -24 72.5t-80 29.5q-19 0 -107 -22t-121 -22q-32 0 -59 16t-55 35q-39 0 -73.5 -57t-53.5 -72t-19 -60zM964 1381q0 -51 20.5 -76.5t70.5 -25.5q20 0 66 47.5t77 47.5q53 0 80 -106 t47 -106q29 0 66.5 114.5t74.5 114.5q20 0 27 -24.5t9 -24.5q7 0 8.5 5t1.5 24q0 61 -36.5 115.5t-114.5 54.5q-20 0 -62 -44t-59 -44q-36 0 -120 20t-89 20q-19 0 -24 -5t-10 -30q-17 -39 -33 -77z" />
<glyph unicode="I" horiz-adv-x="661" d="M-15 1283q0 53 17.5 67t57 74.5t81.5 60.5q27 -17 55.5 -34t58.5 -17q32 0 125 23t103 23q60 0 87 -35t27 -81q0 -31 -3.5 -42.5t-18.5 -11.5q-5 0 -18.5 13.5l-18.5 18.5v-1342h-451v1133l-12 -4q-37 0 -63.5 49.5t-26.5 104.5zM-7 1284q0 -53 23 -98.5t61 -45.5 q19 0 26.5 99.5t27.5 115.5t37 16q22 0 37.5 -31.5t30.5 -31.5q9 0 44.5 19.5t64.5 27t73.5 13.5t73.5 6q20 0 40 -15q20 -19 41 -37q14 0 14 10v32q0 43 -25.5 74.5t-80.5 31.5q-19 0 -105.5 -22.5t-120.5 -22.5q-41 0 -75 25t-39 25q-39 0 -74 -56.5t-54.5 -72.5 t-19.5 -62z" />
<glyph unicode="J" horiz-adv-x="984" d="M99 37v344q14 -10 33 -19.5t42 -9.5q70 0 113 43.5t43 128.5v793q-58 22 -58 105q0 12 14.5 41t19.5 48.5t13 29t26 9.5q14 0 98 -22.5t115 -22.5q10 0 54.5 44.5t69.5 44.5q80 0 121.5 -60.5t41.5 -123.5q0 -10 -0.5 -25.5t-19.5 -15.5q-9 0 -15.5 24t-16.5 27v-974 q0 -225 -156 -335.5t-348 -110.5q-48 0 -97 10t-93 27zM287 1420q0 -98 87 -98h2q15 0 66 46t77 46q53 0 80 -106.5t47 -106.5q22 0 65.5 116.5t76.5 116.5q26 0 30 -24.5t5 -24.5q9 0 9 7.5v19.5q0 54 -39 110.5t-109 56.5q-24 0 -65.5 -45.5t-58.5 -45.5q-37 0 -119 23 t-91 23q-17 0 -22 -5t-9 -25.5t-18 -46t-14 -37.5z" />
<glyph unicode="K" horiz-adv-x="1556" d="M39 1303q0 53 18 67.5t57 74.5t82 60q27 -17 55 -34t59 -17q32 0 124.5 23t103.5 23q60 0 86.5 -34.5t26.5 -80.5q0 -31 -3 -43t-19 -12q-5 2 -8.5 5.5t-11.5 9.5v-443l131 210v7q0 49 61 171t87.5 143t57.5 21q22 0 66 -13.5t66 -13.5q39 0 94.5 47t89.5 50 q65 0 106.5 -46.5t41.5 -91.5q0 -32 -27 -32l-31 5l-362 -600l412 -759h-461l-332 607v-607h-453v1175q-9 -26 -27 -25q-37 0 -63.5 49.5t-26.5 103.5zM48 1305q0 -53 23 -99t60 -46q19 0 26.5 99.5t28 115.5t37.5 16q22 0 37.5 -31.5t30.5 -31.5q9 0 44.5 20t64.5 27.5 t73 13.5t73 6q20 0 41 -15q20 -19 41 -38q14 0 13 10v33q0 43 -25.5 74t-79.5 31q-19 0 -105.5 -22t-120.5 -22q-41 0 -75 24.5t-39 24.5q-39 0 -74 -56t-54.5 -72t-19.5 -62zM750 1121q0 -14 9 -14q15 0 101.5 139t137.5 139q44 0 59.5 -105.5t41.5 -105.5q49 0 59.5 83 t22 103.5t28.5 29t36 8.5q20 0 72 -17t64 -17q17 0 17 24q0 43 -37.5 84.5t-98.5 41.5q-31 -3 -85 -49t-99 -46q-19 0 -64.5 13.5t-69.5 13.5q-27 0 -46 -19q-26 -20 -87 -141t-61 -165z" />
<glyph unicode="L" horiz-adv-x="1223" d="M61 1422q0 12 14.5 41t19.5 48.5t13 29t26 9.5q14 0 98 -22.5t115 -22.5q10 0 54.5 44.5t69.5 44.5q80 0 121.5 -60.5t41.5 -123.5q0 -10 -0.5 -25.5t-19.5 -15.5q-10 0 -15 25.5t-22 25.5v-1053h457v-367h-923v1320q-49 26 -50 102zM77 1420q0 -51 19.5 -76.5 t68.5 -25.5q20 0 66 48t77 48q53 0 80 -106.5t47 -106.5q29 0 66.5 115t75.5 115q17 0 23 -14q5 -17 12 -34q3 0 7 1t4 26q0 51 -37 110t-113 59q-22 0 -61 -44.5t-65 -44.5q-37 0 -118 23t-90 23q-19 0 -23.5 -5t-10.5 -31q-15 -41 -28 -80z" />
<glyph unicode="M" horiz-adv-x="2144" d="M92 0l224 1184q-29 14 -47.5 57t-18.5 89q0 53 18 67.5t57 75t82 60.5q27 -17 55 -34t59 -17q32 0 124.5 22.5t102.5 22.5q63 0 107.5 -39t44.5 -83q0 -31 -3.5 -42.5t-18.5 -11.5l146 -536l156 539q-30 30 -30 84q0 15 14.5 44.5t19.5 49t12.5 29t26.5 9.5 q20 0 74.5 -30.5t97.5 -30.5q19 0 78.5 40.5t89.5 40.5q80 0 127 -77t47 -144q0 -10 -1 -25.5t-20 -15.5q-10 0 -13.5 13t-4.5 27l248 -1368h-468l-117 737l-196 -737h-262l-217 737l-126 -737h-468zM259 1332q0 -53 22.5 -99t60.5 -46q19 0 26.5 99.5t28 116t37.5 16.5 q22 0 37.5 -31.5t30.5 -31.5q9 0 44.5 19.5t64.5 27t73 13.5t73 6q20 0 51 -17q34 -22 68 -43q14 0 14 11v32q0 37 -43.5 74.5t-99.5 37.5q-19 0 -105.5 -22t-120.5 -22q-41 0 -75 24.5t-39 24.5q-39 0 -74 -56t-54.5 -72t-19.5 -62zM1162 1441q0 -49 21 -75.5t71 -26.5 q20 0 66 47.5t77 47.5q53 0 80 -106.5t47 -106.5q29 0 73 84.5t82 84.5q20 0 27 -25t9 -25q12 0 12 29q0 65 -43 138t-119 73q-24 0 -87 -40.5t-83 -40.5q-41 0 -94.5 30.5t-72.5 30.5q-14 0 -21.5 -4.5t-12.5 -27.5t-18.5 -50t-13.5 -37z" />
<glyph unicode="N" horiz-adv-x="1757" d="M39 1344q0 53 18 67t57 74.5t82 60.5q27 -17 55 -34t59 -17q32 0 124.5 23t103.5 23q60 0 122.5 -90t62.5 -140v-20q0 -32 -17 -34l335 -500v561l-20 -3q-51 0 -76.5 30.5t-25.5 83.5q0 12 14 41t19.5 48.5t13 28.5t26.5 9q14 0 98 -22t114 -22q10 0 54.5 44.5t69.5 44.5 q83 0 165 -80t82 -140q0 -10 -1 -25.5t-19 -15.5q-10 0 -15.5 25.5t-22.5 25.5l-13 -3v-1388h-463l-444 668v-668h-464v1191q-41 0 -67.5 49t-26.5 104zM48 1345q0 -53 23 -98.5t60 -45.5q19 0 26.5 99.5t28 115.5t37.5 16q22 0 37.5 -31.5t30.5 -31.5q9 0 44.5 19.5 t59.5 25.5q6 2 13 2q26 0 76 -26q64 -33 133 -68q19 -5 39.5 -21.5t42.5 -31.5q14 0 14 10v32q0 44 -61.5 132t-115.5 88q-19 0 -105.5 -22t-120.5 -22q-41 0 -75 24.5t-39 24.5q-39 0 -74 -56t-54.5 -72.5t-19.5 -62.5zM930 1427q0 -49 21.5 -75.5t70.5 -26.5 q20 0 66.5 47.5t76.5 47.5q53 0 80.5 -106t47.5 -106q29 0 107 97t117 97q20 0 27 -25t9 -25q12 0 12 29q0 54 -77.5 131.5t-157.5 77.5q-20 0 -64.5 -44t-61.5 -44q-34 0 -116.5 22t-90.5 22q-14 0 -21.5 -4t-12.5 -27t-19 -50.5t-14 -37.5z" />
<glyph unicode="O" horiz-adv-x="1774" d="M71 1007q0 54 133 219t196.5 202t130.5 76q63 30 149 30h6q88 0 117 -6.5t119 -6.5q211 0 382 -106.5t171 -188.5q0 -18 -17 -18q75 -99 113 -217t38 -248q0 -301 -203 -522t-566 -221q-361 0 -562 221t-201 522q0 129 37 244l-24 -4q-19 0 -19 24zM87 1014q0 -17 18 -17 q54 0 166 126.5t234 266.5q20 12 33 18t28 6q27 0 53.5 -31.5t60.5 -31.5q39 0 127 27t123 27q37 0 75 -115t79 -115q27 0 73 99.5t76 99.5q32 0 115.5 -78t97.5 -78q12 0 12 14q0 71 -168.5 174t-367.5 103q-85 0 -119 5t-117 5q-80 0 -118.5 -17t-125 -68t-221 -211 t-134.5 -209zM594 743q0 -126 63.5 -217t182.5 -91q122 0 189.5 91t67.5 217q0 128 -67 222.5t-190 94.5q-117 0 -181.5 -95.5t-64.5 -221.5z" />
<glyph unicode="P" horiz-adv-x="1444" d="M63 1356q0 51 24.5 102t58.5 69.5t44.5 22t30.5 3.5h21h40t117.5 -20.5t128.5 -24t144 -3.5h172q167 0 242.5 -16t75.5 -74q0 -27 -10 -46q75 -63 116.5 -153t41.5 -202q0 -223 -140.5 -342t-366.5 -119h-162v-553h-473v1305q-17 -34 -47 -34q-29 0 -43.5 23t-14.5 62z M73 1356q0 -78 49 -79q31 0 57.5 71t79.5 71q63 0 102 -116t74 -116q32 0 109 124.5t126 124.5q24 0 89.5 -54.5t102.5 -54.5q36 0 105 26.5t94 26.5q14 0 31 -10.5t27 -10.5q19 0 25 13.5t6 42.5q0 53 -89.5 67.5t-289.5 14.5h-99q-134 0 -171 6t-107.5 19.5t-89 17 t-34.5 3.5h-28q-34 0 -44.5 -2.5t-43.5 -21.5t-57 -67.5t-24 -95.5zM641 905h80q111 0 111 109q0 51 -31.5 80.5t-79.5 29.5h-80v-219z" />
<glyph unicode="Q" horiz-adv-x="1553" d="M77 743q0 145 47 272l-27 -5q-19 0 -19 24q0 54 132 208.5t196.5 191.5t131.5 76q65 31 154 31q88 0 117.5 -7t119.5 -7q209 0 394.5 -128t185.5 -213q0 -19 -19 -19q58 -90 88.5 -201t30.5 -223q0 -185 -79 -347.5t-234 -266.5l138 -217l-378 -106l-119 191l-97 3 q-361 0 -562 221t-201 522zM92 1036q0 -12 2 -14h13q53 0 167 121t238 254q20 12 33 17.5t28 5.5q27 0 53.5 -31.5t60.5 -31.5q39 0 127 27.5t123 27.5q37 0 75 -115t78 -115q20 0 99.5 43.5t108.5 43.5q31 0 108 -45t79 -45q10 0 10 12q0 78 -183.5 200.5t-384.5 122.5 q-75 0 -117.5 7.5t-117.5 7.5q-71 0 -96.5 -9.5t-133.5 -71.5t-239 -212.5t-131 -199.5zM594 743q0 -126 63.5 -217t182.5 -91q122 0 189.5 91t67.5 217q0 128 -67 222.5t-190 94.5q-117 0 -181.5 -95.5t-64.5 -221.5z" />
<glyph unicode="R" horiz-adv-x="1510" d="M49 1342q0 51 25 102t55.5 68t55.5 33q17 8 41 8h5q27 0 53 -7.5t51.5 -14.5t121.5 -31.5t201 -24.5q236 0 375 -30.5t139 -104.5q0 -33 -15 -52q98 -116 98 -306q0 -178 -57 -265.5t-169 -127.5l340 -589h-530l-237 451v-451h-469v1264q-14 -7 -26 -7q-29 0 -43.5 23 t-14.5 62zM60 1342q0 -78 49 -78q31 0 57 70.5t79 70.5q63 0 102 -115.5t75 -115.5q32 0 108.5 124t126.5 124q31 0 68 -42.5t80 -42.5q27 0 135 -16t132 -16q14 0 30.5 -10.5t26.5 -10.5q19 0 25 13.5t6 42.5q0 61 -141 93.5t-361 32.5q-107 0 -171.5 15.5t-123.5 29 t-82.5 23t-49.5 9.5t-47 -12l-49 -28t-51.5 -64.5t-23.5 -96.5zM602 885h78q111 0 111 103q0 49 -30.5 80t-80.5 31h-78v-214z" />
<glyph unicode="S" horiz-adv-x="1408" d="M43 1089q0 61 82.5 210t152 188.5t157 60t196.5 20.5q88 0 117 -6.5t120 -6.5q209 0 306 -72.5t97 -159.5q0 -19 -19 -18q-15 0 -25.5 3t-44.5 3l-22 -5l-82 -258q-73 41 -181 70.5t-210 29.5q-44 0 -74 -23.5t-30 -61.5q0 -68 200 -118t326 -134.5t126 -324.5 q0 -204 -161 -345t-453 -141q-153 0 -300 56t-260 141l99 301q145 -82 233 -113t153 -31q83 0 129 21t46 66q0 60 -190.5 114t-313.5 142.5t-123 319.5v7l-23 -3q-9 0 -18.5 27t-9.5 41zM49 1089q0 -14 9.5 -37t18.5 -23q53 0 156.5 127t217.5 268q20 12 33 18t28 6 q27 0 53.5 -31.5t60.5 -31.5q39 0 126.5 27t123.5 27q37 0 74.5 -115t78.5 -115q29 0 75 56.5t76 56.5h38q15 -3 31 -5q10 -1 10 11q0 80 -97 148.5t-294 68.5q-73 0 -119 7.5t-121 7.5q-204 0 -307 -59.5t-187.5 -208.5t-84.5 -203z" />
<glyph unicode="T" horiz-adv-x="1297" d="M27 1366q0 53 19.5 107t42.5 69.5t49 15.5q29 0 139.5 -53.5t207.5 -53.5q60 0 239 16t259 16q95 0 138.5 -32t43.5 -82q0 -27 -5 -44t-15 -41t-29 -24l-4 -233h-273v-1027h-451v1027h-269v266q-26 -17 -51 -17q-22 0 -31.5 23.5t-9.5 66.5zM44 1368q0 -34 7 -54.5 t19 -20.5q22 0 77 40.5t83 40.5q100 0 185 -65.5t170 -133.5q22 0 124 107.5t254 107.5q36 0 75 -34q37 -39 76 -77q12 0 17 15.5t11 34t6 42.5q0 43 -42.5 71t-124.5 28q-75 0 -263.5 -16.5t-236.5 -16.5q-94 0 -207.5 53t-134.5 53q-22 0 -39.5 -12t-36.5 -64t-19 -99z " />
<glyph unicode="U" horiz-adv-x="1513" d="M75 1408q0 12 14.5 41t19.5 48.5t12.5 29t26.5 9.5q14 0 98 -22t115 -22q10 0 54 44t70 44q80 0 121.5 -60.5t41.5 -122.5q0 -10 -1 -25.5t-19 -15.5q-10 0 -15.5 25.5t-22.5 25.5v-897q0 -53 32.5 -81.5t83.5 -28.5q54 0 88 29t34 81v633q-41 0 -71.5 64.5t-30.5 122.5 q0 53 18 67.5t57 75t82 60.5q27 -17 55 -34t59 -17q32 0 125 22.5t103 22.5q60 0 87 -34.5t27 -80.5q0 -31 -3.5 -43t-18.5 -12q-6 1 -33 28v-910q0 -225 -169 -350t-409 -125q-238 0 -404 125t-166 350v826q-61 22 -61 107zM90 1407q0 -51 19 -75t68 -24q19 0 66.5 46 t77.5 46q53 0 82 -174.5t49 -174.5q29 0 65 183t73 183q17 0 24 -14q5 -17 12 -34q9 0 8 29q0 58 -39 111t-109 53q-24 0 -64.5 -43t-59.5 -43q-37 0 -118.5 23t-90.5 23q-19 0 -24 -5t-8.5 -23.5t-17 -46.5t-13.5 -40zM740 1330q0 -54 25.5 -114.5t61.5 -60.5 q19 0 22 115.5t23.5 132t37.5 16.5q22 0 37.5 -31.5t30.5 -31.5q9 0 44.5 19.5t64.5 27t73 13.5t73 6q20 0 41 -15q20 -19 41 -36q12 0 12 9v34q0 43 -24 72.5t-80 29.5q-20 0 -108.5 -23t-117.5 -23q-41 0 -75 23t-39 23q-39 0 -75 -55.5t-52 -68t-16 -62.5z" />
<glyph unicode="V" horiz-adv-x="1794" d="M32 1330q0 53 18 67.5t57 75t82 60.5q27 -17 55 -34t59 -17q32 0 125 22.5t103 22.5q60 0 87 -34.5t27 -80.5q0 -31 -3.5 -43t-18.5 -12l212 -626l206 613q-20 31 -20 78q0 12 14.5 41t19.5 48.5t12.5 29t26.5 9.5q14 0 98 -22.5t114 -22.5q10 0 54.5 44.5t70.5 44.5 q82 0 134.5 -90t52.5 -160q0 -10 -1 -25.5t-20 -15.5q-10 0 -30.5 44t-37.5 44l-524 -1391h-343l-499 1328q-5 -49 -8 -98q-7 -53 -33 -53q-37 0 -63.5 49.5t-26.5 103.5zM41 1332q0 -53 23 -99t60 -46q19 0 26.5 99.5t28 116t37.5 16.5q22 0 37.5 -31.5t30.5 -31.5 q9 0 44.5 19.5t64.5 27t73 13.5t73 6q20 0 41 -15q20 -19 41 -38q14 0 13 11v32q0 43 -25.5 74t-79.5 31q-19 0 -105.5 -22t-120.5 -22q-41 0 -75 24.5t-39 24.5q-39 0 -74 -56t-54.5 -72t-19.5 -62zM1033 1420q0 -49 21 -75.5t70 -26.5q20 0 66.5 48t76.5 48 q53 0 80.5 -106.5t47.5 -106.5q29 0 63 100.5t71 100.5q20 0 42.5 -43.5t24.5 -43.5q7 0 8.5 5t1.5 24q0 65 -49.5 150.5t-125.5 85.5q-24 0 -65 -42.5t-60 -42.5q-34 0 -116.5 22t-90.5 22q-14 0 -21.5 -4t-12.5 -27t-18.5 -50t-13.5 -38z" />
<glyph unicode="W" horiz-adv-x="2578" d="M109 1402q0 12 14.5 40.5t19.5 48t12.5 29t26.5 9.5q14 0 98 -22t115 -22q10 0 54 44t70 44q80 0 121.5 -60t41.5 -123q0 -10 -1 -25.5t-19 -15.5l177 -623l124 453q-24 20 -38.5 57.5t-14.5 80.5q0 53 18 67t57 74.5t82 60.5q27 -17 55 -34t58 -17q32 0 125 23t103 23 q60 0 87 -35t27 -81q0 -31 -3 -42.5t-19 -11.5q-5 0 -23 19t-23 22l182 -659l155 568q-25 30 -25 80q0 16 14.5 45t19.5 48.5t12.5 28.5t26.5 9q14 0 98 -22t114 -22q10 0 54.5 44.5t70.5 44.5q80 0 121.5 -60.5t41.5 -123.5q0 -10 -1 -25.5t-20 -15.5q-10 0 -15 25.5 t-22 25.5l-8 -2l-402 -1374h-435l-203 714l-192 -714h-442l-366 1233q-9 -7 -22 -7q-49 0 -75.5 57t-26.5 119zM124 1398q0 -61 21.5 -108.5t68.5 -47.5q14 0 64 75.5t78 75.5q53 0 80 -106.5t47 -106.5q29 0 66.5 115t74.5 115q20 0 27 -24.5t9 -24.5q9 0 8 29 q0 61 -35.5 114.5t-111.5 53.5q-24 0 -64 -43.5t-59 -43.5q-36 0 -119 22.5t-92 22.5q-15 0 -20 -7q-7 -17 -16.5 -37.5t-18 -40t-8.5 -33.5zM924 1318q0 -53 21 -96t59 -43q19 0 25.5 97t27 113t37.5 16q22 0 39 -53.5t32 -53.5q9 0 41 41t63 49.5t75 14t73 5.5 q20 0 41 -15q20 -19 41 -37q14 0 13 10v32q0 56 -29 79t-73 23q-19 0 -107 -22t-123 -22q-34 0 -60 15.5t-53 32.5q-43 0 -73 -53.5t-50 -70t-20 -62.5zM1779 1376q0 -100 92 -100q14 0 64 46.5t77 46.5q53 0 58 -152t26 -152q29 0 88.5 163t94.5 163q22 0 29 -25.5t9 -25.5 q3 0 6.5 1t3.5 27q0 51 -40 110.5t-108 59.5q-24 0 -64 -45t-62 -45q-37 0 -107 20t-107 20q-10 0 -14.5 -4t-17 -36.5t-28.5 -71.5z" />
<glyph unicode="X" horiz-adv-x="1702" d="M19 1344q0 53 17.5 67t57 74.5t81.5 60.5q27 -17 55.5 -34t58.5 -17q32 0 125 23t103 23q63 0 114 -49.5t51 -93.5q1 -37 -8 -47l137 -220l130 213q-9 39 -9 71q0 12 14.5 41t19.5 48.5t13 29t26 9.5q14 0 98 -22t115 -22q10 0 54.5 44t69.5 44q85 0 166 -70.5t81 -128.5 q0 -44 -24 -44q-10 0 -15 26.5t-23 26.5q-27 0 -72 -59t-86 -113l-308 -499l443 -726h-500l-193 315l-197 -315h-497l444 730l-405 648q-5 -20 -11 -103.5t-36 -83.5q-37 0 -63.5 49t-26.5 104zM32 1344q0 -51 23 -95.5t56 -44.5q17 0 23.5 99.5t25.5 114t24 18t17 3.5 q22 0 40.5 -49.5t35.5 -49.5q9 0 38.5 35t53.5 42t75 15.5t82 8.5q19 0 55 -27.5t74 -54.5q12 0 12 12l1 29q0 39 -50 83t-108 44q-20 0 -107 -22.5t-114 -22.5q-39 0 -72 24.5t-40 24.5q-39 0 -74 -55.5t-53 -70t-18 -61.5zM949 1414q0 -80 20.5 -110t57.5 -30 q22 0 72.5 69t79.5 69q53 0 80 -109t47 -109q29 0 106.5 110t114.5 110q24 0 29.5 -24t8.5 -24q9 0 8 22q0 44 -76.5 114t-156.5 70q-20 0 -61.5 -44.5t-58.5 -44.5q-41 0 -115 21.5t-91 21.5t-24 -5t-12 -28q-15 -41 -29 -79z" />
<glyph unicode="Y" horiz-adv-x="1619" d="M61 1402q0 12 14.5 40.5t19.5 48t13 29t26 9.5q14 0 98 -22t115 -22q10 0 54.5 44t69.5 44q80 0 121.5 -60t41.5 -123q0 -34 -10 -39q44 -83 78.5 -144t68.5 -118l141 272q-7 34 -7 68q0 12 14.5 41t19.5 48.5t12.5 28.5t26.5 9q14 0 98 -22t115 -22q10 0 54 44.5 t70 44.5q80 0 123.5 -60.5t43.5 -123.5q0 -19 -4.5 -31t-19.5 -12q-10 0 -14.5 21.5t-9.5 26.5l-436 -759v-663h-476v663l-323 601q-19 -15 -36 -15q-49 0 -75.5 46.5t-26.5 106.5zM73 1400q0 -54 23 -97.5t69 -43.5q20 0 66 67t77 67q54 0 75 -172.5t41 -172.5q29 0 73 181 t80 181q20 0 27 -24.5t8 -24.5q12 0 12 29q0 61 -36.5 117t-114.5 56q-20 0 -64.5 -44t-61.5 -44q-34 0 -116.5 22t-91.5 22q-14 0 -21 -4.5t-12.5 -27t-19 -50t-13.5 -37.5zM922 1427q0 -71 17 -129t63 -58q20 0 69.5 90t80.5 90q53 0 76.5 -110.5t43.5 -110.5t62 74 t55 99.5t24 45t21 19.5q14 0 16.5 -23t7.5 -23q9 0 9.5 3.5t0.5 22.5q0 54 -39 111t-118 57q-15 0 -55 -44t-65 -44q-36 0 -116 23t-88 23q-19 0 -24 -5t-9.5 -26.5t-18 -47t-13.5 -37.5z" />
<glyph unicode="Z" horiz-adv-x="1763" d="M77 0l665 1067h-565v246l-15 -2q-29 0 -43.5 23t-14.5 63q0 51 24.5 102t58.5 69.5t44.5 22t30.5 3.5h20q46 0 96.5 -1t139.5 -19t323 -41.5t362 -23.5q71 0 151 6.5t163 15.5q37 0 53.5 -13t16.5 -48q0 -27 -11 -47t-31 -20q-12 0 -24 9l-650 -1031h639v-381h-1433z M114 1397q0 -78 49 -79q17 0 98 43.5t127 43.5q63 0 180.5 -71.5t152.5 -71.5q32 0 231.5 97t248.5 97q31 0 68 -42.5t80 -42.5q32 0 72 31.5t66 31.5q14 0 30.5 -10t27.5 -10q19 0 24.5 13.5t5.5 42.5q0 49 -66 49q-27 0 -125 -9.5t-181 -9.5q-136 0 -365 22.5t-308 38.5 t-127.5 19.5t-79.5 3.5h-41q-34 0 -44 -2.5t-43 -21.5t-57 -67.5t-24 -95.5z" />
<glyph unicode="[" horiz-adv-x="683" d="M148 -413v1908h495v-204h-225v-1492h225v-212h-495z" />
<glyph unicode="\" horiz-adv-x="573" d="M-9 1495h157l463 -1495h-157z" />
<glyph unicode="]" horiz-adv-x="683" d="M49 -201h230v1492h-230v204h495v-1908h-495v212z" />
<glyph unicode="^" horiz-adv-x="1195" d="M122 556l341 869h253l349 -869h-230l-241 611l-242 -611h-230z" />
<glyph unicode="_" horiz-adv-x="1024" d="M0 -250h1024v-245h-1024v245z" />
<glyph unicode="`" horiz-adv-x="549" d="M87 1368l105 107l238 -238l-107 -106z" />
<glyph unicode="a" horiz-adv-x="1192" d="M51 0l272 856q-14 -9 -27 -9q-10 0 -15 16t-5 40q0 51 26 102t55 51q58 0 92 11t60 13q41 0 73 14.5t66 14.5q82 0 136.5 -81.5t54.5 -149.5q0 -32 -17 -33l-11 2l269 -847h-321l-55 148h-279l-52 -148h-322zM281 903q0 -24 3 -37.5t14 -13.5q26 0 49.5 47t50.5 103 q22 15 32 15q20 0 35 -23t28 -23q17 0 42.5 24t42.5 24q29 0 50.5 -47t39.5 -47q14 0 26 34t31 34q24 0 51 -69.5t46 -69.5q10 0 10 25q0 61 -53.5 143t-130.5 82q-43 0 -72.5 -13.5t-65.5 -17.5q-32 0 -70.5 -11t-82.5 -11q-24 0 -50 -52t-26 -96zM493 373h141l-71 221z " />
<glyph unicode="b" horiz-adv-x="1093" d="M24 709q0 116 18.5 221.5t56 130t93.5 24.5q29 0 70 -4t53 -4q63 0 100 3.5t99 3.5q146 0 251.5 -60.5t105.5 -108.5v-17q43 -65 42 -150q0 -90 -30.5 -135t-93.5 -72q87 -19 145 -83.5t58 -163.5q0 -138 -83.5 -216t-240.5 -78h-539v679q-24 -92 -38 -131t-30 -39 q-19 0 -28 56t-9 144zM34 708q0 -90 6 -136t23 -46q20 0 74 228.5t82 237.5q34 14 48 13q7 0 32.5 -17.5t47.5 -17.5q31 0 88.5 20t85.5 20q31 0 53.5 -63.5t51.5 -63.5q22 0 49.5 52.5t52.5 52.5q19 0 65 -42.5t57 -42.5q9 0 9 5v12q0 37 -107 95t-242 58q-63 0 -106 -4 t-89 -4q-29 0 -70 4t-51 4q-32 0 -52 -5t-45.5 -22t-44 -124t-18.5 -214zM454 264h84q37 0 61 18.5t24 54.5q0 37 -24 56t-61 19h-84v-148zM454 653h55q76 0 76 73q0 36 -20.5 56.5t-55.5 20.5h-55v-150z" />
<glyph unicode="c" horiz-adv-x="869" d="M37 526q0 126 50 226q-14 5 -14 25q0 39 46 109t94 111q32 31 64 61q37 27 111 27q43 0 136 8.5t139 8.5q68 0 105 -71.5t37 -149.5q0 -83 -29 -83q-26 0 -34.5 23t-18.5 77v-209q-15 5 -46.5 14.5t-94.5 9.5q-87 0 -134.5 -53t-47.5 -134q0 -80 47.5 -131t134.5 -51 q56 0 86.5 6t54.5 16v-356q-22 -3 -57 -6.5t-81 -3.5q-259 0 -403.5 155.5t-144.5 370.5zM82 777q0 -20 15 -20q20 0 85 70.5t136 148.5q22 15 36 16q15 0 28.5 -22.5t27.5 -22.5q22 0 65.5 24t58.5 24q22 0 37.5 -46t35.5 -46q14 0 37 31.5t40 31.5q31 0 49.5 -81.5 t42.5 -81.5q22 0 22 78t-35 147t-101 69q-39 0 -144 -8.5t-135 -8.5q-71 0 -107 -29q-37 -43 -70.5 -71.5t-78.5 -98.5t-45 -104z" />
<glyph unicode="d" horiz-adv-x="1069" d="M46 910q0 44 10 86.5t29.5 54.5t39.5 18t42 6q37 0 127 -13.5t211 -32.5t223 -70t102 -90l-2 -8q141 -141 142 -351q0 -206 -138 -358t-386 -152h-364v823q-19 0 -27.5 25t-8.5 62zM53 908q0 -80 29 -80q14 0 49.5 63t60.5 75q10 9 24 9t27.5 -21.5t28.5 -21.5 q19 0 61.5 23t61.5 23q22 0 40.5 -86t33.5 -86q9 0 29.5 74t40.5 74q29 0 139 -48.5t128 -48.5q16 0 16 12q0 31 -104 84.5t-201 68.5q-48 0 -125 14t-144 25l-81 6q-39 0 -67.5 -18t-37.5 -56.5t-9 -84.5zM401 320h45q92 0 143.5 56.5t51.5 133.5q0 80 -51 139t-144 59h-45 v-388z" />
<glyph unicode="e" horiz-adv-x="869" d="M26 677q0 148 6.5 236.5t42.5 112.5t90 24q31 0 72.5 -4.5t51.5 -4.5q61 0 98.5 3.5t98.5 3.5q168 0 240 -23t72 -86q0 -29 -16 -29l-52 -3v-160h-323v-131h306v-245h-306v-123h323v-248h-636v475q-22 0 -45 62t-23 140zM36 675q0 -71 19.5 -127t38.5 -56 q20 0 44.5 227.5t53.5 236.5q34 14 50 14q14 0 33 -18t45 -18q31 0 88.5 20.5t84.5 20.5q31 0 55 -64t52 -64q24 0 43.5 35t45.5 35q19 0 47.5 5t40.5 5q8 0 8 4l-1 13q0 94 -299 94q-61 0 -110.5 -4.5t-87.5 -4.5q-26 0 -64.5 4.5t-54.5 4.5q-32 0 -51.5 -5.5t-46 -23 t-30.5 -140t-4 -194.5z" />
<glyph unicode="f" horiz-adv-x="826" d="M27 942q0 34 18 71t42 50.5t32.5 15t33.5 1.5h29t42.5 -6.5t93.5 -23t136 -16.5q68 0 155 8t92 8q63 0 63 -43q0 -21 -34 -36v-207h-332v-164h315v-250h-315v-350h-321v883h-9q-41 0 -41 59zM34 942q0 -56 36 -56q20 0 39 50.5t56 50.5q43 0 70 -82t52 -82 q24 0 77.5 87.5t87.5 87.5q22 0 49.5 -29.5t54.5 -29.5q26 0 53 21t44 21q9 0 21 -6.5t18 -6.5q19 0 41 11t22 28q0 34 -64 34q-75 -5 -127 -8.5t-110 -3.5q-71 0 -119 10.5t-92 20.5t-62 11.5t-28 1.5h-29q-5 -2 -30.5 -16t-42.5 -48t-17 -67z" />
<glyph unicode="g" horiz-adv-x="1234" d="M46 731q0 37 92.5 144.5t138.5 135t92 54.5q44 20 109 20q54 0 84 -4t81 -4q151 0 258.5 -53.5t107.5 -108.5l-7 -10q10 -10 21 -24.5t25 -33.5l-311 -112q-20 34 -52 53.5t-91 19.5q-88 0 -138.5 -81t-50.5 -189q0 -116 52.5 -199.5t151.5 -83.5q51 0 78 12t41 36v98 h-116v189h446v-357q-56 -94 -177 -163.5t-272 -69.5q-262 0 -409 159t-147 375q0 44 8.5 92t23.5 94l-24 -7q-15 0 -15 18zM56 731q0 -10 9 -10q37 0 117 85t168 179q22 9 45 17q17 0 35.5 -22t44.5 -22q31 0 92 18.5t81 18.5q29 0 54.5 -80t52.5 -80q20 0 52.5 70t53.5 70 q24 0 73 -32.5t59 -32.5q5 6 5 9q0 46 -107 97t-246 51q-60 0 -85.5 5t-84.5 5q-70 0 -112.5 -26.5t-80 -48.5t-132 -129.5t-94.5 -141.5z" />
<glyph unicode="h" horiz-adv-x="1177" d="M68 937q0 37 13.5 47.5t41 52t54.5 41.5q2 0 30 -17.5t50 -17.5q19 0 83.5 16t76.5 16q41 0 60.5 -24.5t19.5 -57.5v-25q-3 -12 -16 -12q-3 0 -15 12l-17 17v-356h250v267q-34 20 -34 72q0 10 10.5 28t15.5 40t25 22q17 0 70.5 -16t79.5 -16q14 0 40 31.5t47 31.5 q58 0 86 -42t28 -88v-18q-3 -10 -14 -11q-5 0 -10 18t-17 18l-4 -966h-323v376h-250v-376h-323v830q-26 3 -42 35.5t-16 71.5zM75 939q0 -41 15 -71.5t43 -30.5q12 0 17 69.5t20 80.5t26 11q15 0 26.5 -22t20.5 -22t32.5 13.5t45 20.5t51 10.5t50.5 3.5q15 0 35.5 -19 t22.5 -19q3 0 5.5 3t4.5 4v22q0 31 -16 51.5t-57 20.5q-14 0 -75 -15.5t-85 -15.5q-29 0 -53 18t-27 18q-29 0 -53 -41t-36.5 -50t-12.5 -40zM675 966q0 -71 63 -71q14 0 48 34t53 34q37 0 55.5 -75t32.5 -75q19 0 46 81t53 81q15 0 18.5 -14t6.5 -22q7 0 7 20q0 61 -30 90 t-75 29q-17 0 -44.5 -30.5t-40.5 -30.5q-26 0 -83 14.5t-64 14.5q-19 0 -24 -25q-12 -27 -22 -55z" />
<glyph unicode="i" horiz-adv-x="462" d="M-10 898q0 36 12 46t40 52.5t57 42.5q2 0 29.5 -17.5t50.5 -17.5q19 0 83.5 16t75.5 16q39 0 59.5 -25.5t20.5 -56.5q0 -19 -2.5 -28t-12.5 -9q-5 0 -13.5 8.5l-13.5 13.5v-939h-315v793l-8 -2q-27 0 -45 34t-18 73zM-5 898q0 -36 16 -68t42 -32q14 0 19 69.5t19 80.5 t26 11q15 0 27 -22t21 -22t32.5 13.5t40.5 17.5q17 7 55.5 12t50.5 5q15 0 35.5 -19t21.5 -19q3 0 9 7v22q0 32 -16 53.5t-57 21.5q-14 0 -75 -15.5t-83 -15.5q-27 0 -51 17.5t-29 17.5q-29 0 -50.5 -37.5t-37.5 -51.5t-16 -46z" />
<glyph unicode="j" horiz-adv-x="688" d="M70 26v241q10 -9 21 -14.5t30 -5.5q49 0 79.5 30.5t30.5 89.5v555q-40 14 -40 70q0 15 10 36.5t15 39t26 17.5q15 0 68.5 -16t80.5 -16q9 0 39.5 31.5t47.5 31.5q56 0 85 -41.5t29 -87.5q0 -29 -15 -29q-7 0 -10 16.5t-12 18.5v-682q0 -156 -109 -233.5t-244 -77.5 q-31 0 -69.5 7.5t-62.5 18.5zM201 993q0 -32 14.5 -50t48.5 -18q14 0 47 32.5t51 32.5q37 0 56 -75t34 -75q19 0 46.5 82t52.5 82q15 0 19.5 -11.5t6.5 -22.5q5 0 5 18q0 37 -27.5 77.5t-76.5 40.5q-14 0 -46 -32.5t-41 -32.5q-24 0 -78 16t-68 16q-17 0 -22 -23 q-12 -29 -22 -57z" />
<glyph unicode="k" horiz-adv-x="1088" d="M27 912q0 36 13.5 47.5t41 52.5t54.5 41q2 0 30 -18t50 -18q20 0 84 16.5t76 16.5q43 0 61.5 -24t18.5 -56v-28q-3 -12 -15 -12q-10 9 -14 12v-311l90 148q0 37 43.5 123t60.5 100.5t41 14.5q17 0 50 -9.5t43 -9.5q26 0 66.5 33.5t61.5 35.5q46 0 75 -32.5t29 -64.5 q0 -22 -19 -23l-22 4l-254 -420l289 -531h-323l-231 425v-425h-318v823q-5 -19 -19 -18q-27 0 -45 34t-18 73zM34 913q0 -41 15.5 -71.5t42.5 -30.5q12 0 17 70t22 82t25 12q15 0 25.5 -22.5t22.5 -22.5q7 0 29 13t46 20t53.5 10t50.5 3q17 0 35.5 -18.5t20.5 -18.5 q3 0 5.5 2.5l4.5 4.5v24q0 29 -18 51t-57 22q-17 0 -79 -15.5t-79 -15.5q-27 0 -51 17t-29 17q-22 0 -41.5 -26.5t-43.5 -60.5q-17 -12 -17 -46zM526 784q0 -5 5 -8q10 0 71 97t97 97q31 0 41 -74t29 -74q36 0 42.5 58.5t18.5 78t41 19.5q15 0 49 -12t46 -12t12 17 q0 39 -30.5 64t-64.5 25q-20 -3 -58.5 -35t-69.5 -32q-10 0 -47.5 9.5t-47.5 9.5q-20 0 -31 -14q-19 -14 -61 -98.5t-42 -115.5z" />
<glyph unicode="l" horiz-adv-x="855" d="M43 995q0 14 10 33.5t15 38t26 18.5q17 0 70.5 -16t78.5 -16q14 0 40.5 31.5t46.5 31.5q58 0 86 -41.5t28 -87.5q0 -29 -14 -29q-5 0 -10 17.5t-17 17.5v-736h322v-257h-648v924q-34 17 -34 71zM53 993q0 -71 63 -71q14 0 47.5 34t52.5 34q37 0 55.5 -75t32.5 -75 q19 0 46.5 81t52.5 81q15 0 18.5 -13t7.5 -21q7 0 6 19q0 36 -25.5 77.5t-77.5 41.5q-17 0 -45 -31.5t-44 -31.5q-24 0 -78 16t-68 16q-19 0 -24 -25q-10 -29 -20 -57z" />
<glyph unicode="m" horiz-adv-x="1501" d="M65 0l156 828q-22 12 -34 41t-12 61q0 36 13.5 48t41 53.5t54.5 41.5q2 0 30 -17.5t50 -17.5q19 0 83.5 16t76.5 16q44 0 74.5 -29t30.5 -58v-25q-3 -12 -15 -12l102 -376l111 377q-22 22 -22 63q0 12 10 31.5t15 38.5t26 19q12 0 54.5 -21.5t65.5 -21.5q9 0 55 28t63 28 q56 0 89 -53.5t33 -100.5q0 -27 -15 -28q-7 0 -8.5 8.5t-3.5 19.5l173 -958h-328l-81 515l-138 -515h-182l-153 515l-89 -515h-326zM180 932q0 -39 16.5 -69.5t43.5 -30.5q12 0 17 69t19.5 80.5t26.5 11.5q15 0 26.5 -22t20.5 -22q7 0 33.5 13.5t46 19.5t49.5 9.5t50 3.5 q14 0 37 -13.5t46 -27.5q5 0 11 7v22q0 27 -30 52.5t-71 25.5q-17 0 -79 -15t-79 -15q-27 0 -51 17t-29 17q-29 0 -50 -37.5t-37.5 -50.5t-16.5 -45zM813 1009q0 -71 65 -72q10 0 45.5 33.5t54.5 33.5q37 0 56 -74t33 -74q20 0 51.5 58.5t56.5 58.5q14 0 19 -17t7 -17 q7 0 7 19q0 46 -29 97t-84 51q-17 0 -62 -28t-57 -28q-29 0 -66 21t-51 21q-20 0 -24 -27q-12 -29 -22 -56z" />
<glyph unicode="n" horiz-adv-x="1229" d="M27 941q0 37 13.5 47t41 52t54.5 42q2 0 30 -18t50 -18q20 0 84 16t76 16q41 0 85 -63.5t44 -95.5q0 -14 -1 -26t-11 -14l235 -350v393l-14 -2q-36 0 -53.5 21.5t-17.5 58.5q0 10 10 30t15.5 39.5t25.5 19.5q14 0 66.5 -15.5t83.5 -15.5q9 0 39 31.5t47 31.5 q58 0 115 -57t57 -98v-17q-3 -10 -13 -10q-5 0 -10.5 18t-17.5 18l-8 -4v-971h-325l-310 468v-468h-324v833q-27 0 -47 35t-20 73zM34 942q0 -41 15.5 -71.5t42.5 -30.5q12 0 17 70t20.5 81t26.5 11q15 0 25.5 -22t22.5 -22q5 0 30.5 14.5t41.5 17.5q3 1 7 1q18 0 55 -19 q45 -23 94 -47q17 -5 36.5 -21t21.5 -16q3 0 8 7v24q0 32 -41.5 92.5t-82.5 60.5q-17 0 -79 -15.5t-79 -15.5q-27 0 -51 17t-29 17q-22 0 -41.5 -26.5t-43.5 -60.5q-17 -15 -17 -46zM651 998q0 -71 65 -71q14 0 47 33t52 33q37 0 56 -74t34 -74q20 0 74.5 68t81.5 68 q15 0 19 -13.5t7 -21.5q9 0 8 20q0 39 -53.5 92.5t-111.5 53.5q-15 0 -46.5 -30.5t-39.5 -30.5q-29 0 -80 15.5t-67 15.5q-19 0 -27 -28t-19 -56z" />
<glyph unicode="o" horiz-adv-x="1241" d="M49 704q0 37 94.5 154t138 142.5t89.5 52.5q44 20 109 20q56 0 84 -4t81 -4q150 0 269 -74t119 -132q0 -5 -5 -9.5t-7 -4.5q51 -68 78 -152t27 -172q0 -211 -142 -366t-395 -155t-394.5 154t-141.5 367q0 90 27 170l-17 -2q-14 0 -14 15zM61 709q0 -12 12 -12 q37 0 115.5 88.5t165.5 187.5q20 9 42 17q17 0 36 -22t44 -22q29 0 87 18.5t88 18.5q27 0 53 -80t55 -80q19 0 51 70t52 70q24 0 83 -55.5t67 -55.5q9 7 9 10q0 51 -118.5 122.5t-257.5 71.5q-56 0 -92 3.5t-73 3.5q-48 0 -72 -7.5t-92 -47.5t-161.5 -152.5t-93.5 -146.5z M415 521q0 -87 45 -152t129 -65q85 0 131.5 64.5t46.5 152.5q0 90 -46.5 155.5t-131.5 65.5q-83 0 -128.5 -65.5t-45.5 -155.5z" />
<glyph unicode="p" horiz-adv-x="1010" d="M44 949q0 34 18 70.5t42 50.5t32.5 15.5t31.5 1.5h31t59.5 -10t86.5 -17t124 -7h70t67 2q109 0 158 -12t49 -53q0 -20 -7 -32q51 -43 81 -107.5t30 -141.5q0 -155 -99.5 -239t-256.5 -84h-112v-386h-332v913q-10 -24 -32 -23q-41 0 -41 59zM51 949q0 -54 34 -54 q22 0 41 49t54 49q43 0 72 -80.5t52 -80.5q15 0 74 86.5t91 86.5q17 0 63 -38t72 -38q24 0 71.5 18.5t67.5 18.5q10 0 22 -7.5t19 -7.5q21 0 21 39q0 41 -77.5 49.5t-258.5 8.5q-80 0 -104.5 2.5t-92.5 16t-83 13.5h-21h-27q-5 -2 -30.5 -15.5t-42.5 -47.5t-17 -68zM449 633 h56h2q75 0 75 76q0 36 -21.5 57.5t-55.5 21.5h-56v-155z" />
<glyph unicode="q" horiz-adv-x="1086" d="M53 521q0 97 34 190q-3 -2 -19 -3q-14 0 -14 17q0 37 93 145t138 134.5t91 53.5q44 20 109 20q54 0 84 -4t81 -4q146 0 276 -90t130 -150q0 -14 -13 -14q83 -132 83 -295q0 -129 -56 -243.5t-163 -187.5l97 -151l-264 -75l-83 134l-68 2q-253 0 -394.5 154t-141.5 367z M65 725q0 -9 10 -9q36 0 115.5 84.5t168.5 177.5q20 7 42 15q17 0 37 -21t43 -21q31 0 92 18.5t84 18.5q27 0 53.5 -80.5t53.5 -80.5q19 0 71.5 30.5t72.5 30.5q24 0 73.5 -31.5t57.5 -31.5q7 -1 7 8q0 56 -128.5 141.5t-269.5 85.5q-60 0 -82 5t-81 5q-63 0 -106 -20 q-53 -34 -92 -56.5t-130.5 -128t-91.5 -140.5zM415 521q0 -87 45 -152t129 -65q85 0 131.5 64.5t46.5 152.5q0 90 -46.5 155.5t-131.5 65.5q-83 0 -128.5 -65.5t-45.5 -155.5z" />
<glyph unicode="r" horiz-adv-x="1058" d="M34 939q0 37 17 72t39 47t38.5 20.5t33.5 8.5q22 0 42.5 -7.5t39 -11t81.5 -19.5t136 -16q167 0 263 -20.5t96 -73.5q0 -23 -10 -37q69 -82 69 -214q0 -125 -40 -186t-119 -90l238 -412h-371l-165 315v-315h-328v885l-19 -6q-20 0 -30.5 17t-10.5 43zM41 939 q0 -54 36 -54q20 0 38.5 49t56.5 49q44 0 71 -80.5t53 -80.5q15 0 74 86.5t89 86.5q22 0 49.5 -29.5t54.5 -29.5q20 0 97 -11.5t90 -11.5q10 0 22 -7.5t19 -7.5q20 0 20 41q0 43 -100 65t-250 22q-60 0 -92 5q-60 17 -106.5 26.5t-64.5 16t-36 6.5q-22 0 -36.5 -10 t-32.5 -19.5t-35 -43.5t-17 -68zM422 619h54q77 0 77 73q0 34 -21.5 55.5t-55.5 21.5h-54v-150z" />
<glyph unicode="s" horiz-adv-x="986" d="M29 762q0 41 58.5 146.5t107 132.5t108 41.5t139.5 14.5q54 0 84 -4t81 -4q146 0 214.5 -51t68.5 -111q0 -14 -14 -14q-12 0 -20.5 3t-28.5 3l-16 -4l-56 -182q-54 31 -127 50.5t-147 19.5q-32 0 -52.5 -16t-20.5 -44q0 -48 138 -81.5t228 -94t90 -227.5 q0 -143 -113 -241.5t-317 -98.5q-109 0 -209.5 38.5t-181.5 99.5l69 211q97 -56 161.5 -78.5t109.5 -22.5q122 0 122 60q0 43 -135 81t-220 99t-85 225l-16 1q-7 0 -13.5 18t-6.5 30zM34 762q0 -14 6 -28t13 -14q39 0 110.5 89t151.5 188q22 9 44 17q17 0 35.5 -22t44.5 -22 q31 0 92 18.5t81 18.5q29 0 54.5 -80t53.5 -80q17 0 52.5 39t54.5 39q22 0 30.5 -1.5t16.5 -1.5q7 3 7 8q0 54 -68 103t-206 49q-58 0 -83.5 5t-84.5 5q-145 0 -216.5 -41.5t-130 -145.5t-58.5 -143z" />
<glyph unicode="t" horiz-adv-x="908" d="M19 956q0 34 13.5 74t29.5 50t35 10t95.5 -37.5t145.5 -37.5q37 0 165 11.5t186 11.5q65 0 95.5 -22.5t30.5 -57.5q0 -20 -3.5 -31.5t-12.5 -31.5q-9 -12 -18 -12l-2 -163h-192v-720h-315v720h-189v185q-19 -12 -35 -12q-15 0 -22 18t-7 45zM31 958q0 -53 18 -53 q19 0 53 29t58 29q71 0 129 -43q60 -49 121 -97q15 0 86.5 75t177.5 75q26 0 52 -24q26 -27 53 -54q7 0 8.5 3.5t6 13.5t7 20t2.5 27q0 70 -116 70q-61 0 -187 -12t-163 -12q-58 0 -117.5 24t-122.5 51q-15 0 -29 -9.5t-25.5 -43.5t-11.5 -69z" />
<glyph unicode="u" horiz-adv-x="1059" d="M63 1016.5q10 19.5 15 39t26 19.5q15 0 66 -15.5t82 -15.5q12 0 39 31t47 31q58 0 87 -41t29 -87q0 -29 -15 -29q-7 0 -10.5 18t-15.5 18v-628q0 -78 80 -78q37 0 62 21t25 57v442q-29 0 -50 45.5t-21 85.5q0 36 13.5 48t40.5 53.5t54 41.5q2 0 30 -17.5t50 -17.5 q19 0 83.5 16t76.5 16q41 0 60.5 -24.5t19.5 -57.5v-25q-3 -12 -15 -12q-5 3 -13 9.5t-11 9.5v-638q0 -156 -118 -244t-287 -88q-165 0 -281.5 87.5t-116.5 244.5v578q-42 17 -42 74q0 13 10 32.5zM63 985q0 -36 13.5 -53t47.5 -17q10 0 46 32.5t55 32.5q37 0 57 -121.5 t34 -121.5q19 0 44.5 127.5t52.5 127.5q14 0 19 -17t7 -17q5 0 5 20q0 39 -28 77.5t-76 38.5q-15 0 -47.5 -30t-39.5 -30q-29 0 -80 15.5t-66 15.5q-19 0 -24 -26zM517 930q0 -41 17 -81.5t44 -40.5q14 0 15.5 81t16 92.5t26.5 11.5q15 0 27 -22t21 -22q7 0 33 13.5 t45.5 19.5t49.5 9.5t50 3.5q15 0 29 -10q14 -14 29 -26q3 0 9 7v24q0 31 -16.5 51t-56.5 20q-3 0 -70.5 -16t-88.5 -16q-29 0 -51 16t-29 16q-29 0 -52.5 -39t-35.5 -49t-12 -43z" />
<glyph unicode="v" horiz-adv-x="1255" d="M22 930q0 36 13.5 48t41 53.5t56.5 41.5q2 0 30 -17.5t50 -17.5q26 0 87 16t71 16q41 0 60.5 -24.5t19.5 -57.5v-25q-3 -12 -16 -12l150 -439l143 429q-14 22 -14 54q0 12 10.5 33.5t15.5 39t25 17.5q15 0 69 -16t81 -16q9 0 39.5 31.5t47.5 31.5q56 0 93.5 -64 t37.5 -111q0 -29 -15 -29q-5 0 -20.5 31.5t-27.5 31.5l-366 -975h-241l-349 930q-3 -36 -5 -69q-5 -37 -24 -38q-27 0 -45 34t-18 73zM29 932q0 -41 14.5 -70.5t43.5 -29.5q14 0 19 69.5t18.5 80.5t26.5 11q15 0 25.5 -22t22.5 -22q7 0 31.5 13.5t46 19.5t51 9.5t50.5 3.5 q17 0 35.5 -18.5t20.5 -18.5q5 0 6.5 3t3.5 5v22q0 29 -17 51t-56 22q-14 0 -75 -15t-83 -15q-27 0 -51 17t-29 17q-29 0 -50.5 -37.5t-37.5 -49.5t-16 -46zM723 993q0 -71 65 -71q10 0 45.5 34t52.5 34q37 0 56 -75t34 -75q20 0 44 70.5t50 70.5q12 0 24 -20t24 -41 q7 0 6 21q0 46 -34.5 105.5t-87.5 59.5q-15 0 -47.5 -30t-39.5 -30q-29 0 -80 15.5t-66 15.5q-20 0 -26 -27q-10 -29 -20 -57z" />
<glyph unicode="w" horiz-adv-x="1804" d="M77 981q0 10 10 30t15 39.5t26 19.5q15 0 66 -15.5t82 -15.5q12 0 39 31t47 31q58 0 87 -41t29 -87q0 -29 -15 -29l124 -435l87 316q-17 14 -27.5 40t-10.5 57q0 37 13.5 47.5t41 52t56.5 41.5q2 0 30 -18t50 -18q17 0 81.5 16.5t78.5 16.5q41 0 59.5 -25t18.5 -57v-25 q-3 -12 -15 -12q-3 0 -15.5 13t-17.5 16l128 -461l109 398q-17 19 -17 57q0 10 10 30t14.5 39.5t26.5 19.5q15 0 66 -15.5t82 -15.5q14 0 40 31.5t46 31.5q58 0 86 -41.5t28 -87.5v-19q-3 -10 -13 -10q-7 0 -10.5 18t-15.5 18h-7l-280 -963h-305l-143 500l-134 -500h-310 l-255 862q-3 -2 -15 -3q-34 0 -52.5 39t-18.5 83zM87 978q0 -39 15 -74t48 -35q9 0 43.5 53t54.5 53q37 0 56 -74t34 -74q20 0 46 80t53 80q14 0 19 -17t7 -17q5 0 5 20q0 44 -24 80.5t-80 36.5q-17 0 -44 -30.5t-41 -30.5q-24 0 -78.5 16t-69.5 16q-10 0 -14.5 -8.5 t-11 -23.5t-12.5 -28.5t-6 -22.5zM646 922q0 -37 15.5 -67t41.5 -30q12 0 17 68t19.5 79t25.5 11q15 0 27.5 -37.5t22.5 -37.5q3 0 28 29t43 33q17 7 55.5 12t50.5 5q15 0 35.5 -19t22.5 -19q3 0 8 7v22q0 31 -16 51.5t-55 20.5q-12 0 -75 -15.5t-85 -15.5q-27 0 -51 17 t-29 17q-29 0 -52 -39t-36 -50t-13 -42zM1245 963q0 -70 65 -70q14 0 47 32.5t51 32.5q37 0 41 -106.5t17 -106.5q22 0 64 115t66 115q14 0 18.5 -18t6.5 -18q9 0 9 19q0 37 -27.5 78t-76.5 41q-17 0 -45 -31.5t-44 -31.5q-26 0 -74.5 13.5t-74.5 13.5q-12 0 -22.5 -25.5 t-20.5 -52.5z" />
<glyph unicode="x" horiz-adv-x="1192" d="M14 941q0 22 2.5 32t11.5 17t37.5 49.5t56.5 42.5q2 0 30 -18t50 -18q19 0 83.5 16t76.5 16q43 0 79.5 -34.5t36.5 -65.5q0 -25 -7 -32l97 -155l90 150l-5 49q0 12 10.5 33t14.5 39t26 18q15 0 66.5 -15t81.5 -15q12 0 39.5 30.5t47.5 30.5q61 0 117 -49.5t56 -90.5 q0 -31 -17 -30q-7 0 -10 18.5t-15 18.5q-19 0 -51 -41t-61 -80l-215 -348l310 -509h-350l-135 219l-138 -219h-348l311 510l-284 454q-2 -5 -8 -68t-24 -63q-27 0 -45 34.5t-18 73.5zM22 941q0 -37 15.5 -67t39.5 -30q12 0 17 68.5t20 81.5t27 13t28 -34t25 -34q7 0 27.5 24 t40.5 29.5t51 11t54 5.5q17 0 53 -29t38 -29q5 0 8 8l2 21q0 29 -34 59.5t-77 30.5q-7 0 -71.5 -16t-83.5 -16q-27 0 -50.5 17t-27.5 17q-31 0 -53 -38.5t-35.5 -48.5t-13.5 -44zM665 990q0 -54 14.5 -76.5t40.5 -22.5q10 0 48 48.5t57 48.5q37 0 56 -76.5t34 -76.5 q20 0 74 77.5t81 77.5q14 0 19 -17t6 -17q5 5 6 15q0 29 -54.5 79.5t-107.5 50.5q-17 0 -45 -31.5t-40 -31.5q-27 0 -78 15t-67 15q-19 0 -27 -25.5t-17 -52.5z" />
<glyph unicode="y" horiz-adv-x="1132" d="M43 981q0 12 10 32t15 38.5t26 18.5q15 0 67.5 -15.5t81.5 -15.5q12 0 39.5 31t47.5 31q56 0 85 -42t29 -86q0 -24 -7 -27l102 -184l99 191l-5 47q0 9 11 29.5t13.5 34t7.5 19.5t19 6q15 0 68 -15.5t81 -15.5q14 0 40.5 31.5t46.5 31.5q58 0 88 -42.5t30 -86.5 q0 -29 -17 -29q-7 0 -11.5 15t-5.5 17l-305 -531v-464h-333v464l-227 421q-14 -10 -25 -11q-34 0 -52.5 33.5t-18.5 73.5zM51 980q0 -41 15.5 -70t49.5 -29q14 0 46 47t54 47q37 0 51 -121t29 -121q20 0 51 127t56 127q15 0 18.5 -13t7.5 -21q9 0 8 20q0 43 -25.5 82 t-79.5 39q-14 0 -47 -30.5t-42 -30.5q-29 0 -80 15t-66 15q-20 0 -24 -27q-12 -29 -22 -56zM645 998q0 -65 16 -97.5t40 -32.5q9 0 48 62.5t57 62.5q37 0 54 -77t31 -77t40.5 46.5t45 83t27.5 36.5t11 -10t6 -20q7 0 6 17q0 37 -28 77t-80 40q-14 0 -39.5 -30.5t-46.5 -30.5 q-26 0 -77.5 16t-64.5 16q-19 0 -24 -27q-12 -27 -22 -55z" />
<glyph unicode="z" horiz-adv-x="1234" d="M53 0l466 747h-395v172h-12q-39 0 -39 59q0 34 17 70.5t41.5 49.5t33.5 15.5t32 2.5q32 0 67 -1t95.5 -13t228 -29t254.5 -17q61 0 111.5 4.5t107.5 9.5q49 0 50 -41q0 -48 -29 -48q-7 0 -17 7l-456 -721h449v-267h-1005zM80 978q0 -56 34 -56q22 0 71.5 30.5t86.5 30.5 q44 0 126 -50t107 -50q22 0 161.5 68t173.5 68q22 0 49.5 -30t54.5 -30q24 0 51 22.5t46 22.5q9 0 20.5 -7t20.5 -7q20 0 20 39q0 32 -46 32q-60 -5 -107 -8t-107 -3q-99 0 -257 15t-217.5 27t-98 14.5t-72.5 2.5h-29q-5 -2 -30.5 -16.5t-41.5 -46.5t-16 -68z" />
<glyph unicode="{" horiz-adv-x="799" d="M73 454v192q73 0 121 18t48 81v468q0 129 58.5 186t96 76.5t74.5 19.5h175v-201h-76q-61 0 -73 -20t-16.5 -47.5t-5.5 -42.5v-434q0 -104 -59.5 -147t-136.5 -54q83 -10 136 -54q60 -39 60 -163v-439q0 -54 14 -80t81 -26h76v-200h-175q-71 0 -150 74.5t-79 204.5v469 q0 71 -49.5 95t-119.5 24z" />
<glyph unicode="|" horiz-adv-x="653" d="M262 -413v1908h163v-1908h-163z" />
<glyph unicode="}" horiz-adv-x="799" d="M151 -213h79q58 0 78 26q15 26 15 80v439q0 122 57 164t141 53q-75 9 -136.5 53t-61.5 148v434q0 56 -13.5 83t-79.5 27h-79v201h177q68 0 148 -75t80 -207v-468q0 -65 49.5 -82t119.5 -17v-192q-32 0 -58.5 -2.5t-60.5 -19.5q-49 -20 -50 -97v-469q0 -131 -79 -205 t-149 -74h-177v200z" />
<glyph unicode="~" horiz-adv-x="1195" d="M122 480q15 105 75 204q53 99 181 98q80 0 235.5 -98.5t197.5 -98.5q46 0 72 39q22 44 22 92h160q0 -124 -69 -211t-169 -87q-58 0 -233.5 98t-215.5 98q-60 0 -85.5 -42.5t-25.5 -91.5h-145z" />
<glyph unicode="&#xa1;" horiz-adv-x="779" d="M156 -233v958h467v-958h-467zM160 1021q0 90 65.5 157t158.5 67q85 0 151.5 -66t66.5 -158q0 -95 -66 -160q-61 -66 -152 -67q-94 0 -159 67.5t-65 159.5z" />
<glyph unicode="&#xa2;" horiz-adv-x="867" d="M53 614q0 187 102.5 335t293.5 179v299h163v-296q63 0 94 -11t58 -20.5t56 -22.5v-303q-12 9 -29 18t-38.5 19.5t-40 15.5t-40.5 5q-78 0 -125 -64t-47 -145q0 -83 44.5 -146.5t127.5 -63.5q54 0 79 13t36.5 23t32.5 31v-312l-94 -40q-17 -7 -49 -15.5t-65 -13.5v-313 h-163v314q-185 27 -290.5 175.5t-105.5 338.5z" />
<glyph unicode="&#xa3;" horiz-adv-x="1258" d="M73 250q27 34 77 54l103 48q61 70 62 189l-5 48q-2 17 -3 20t-4 5h-169v157h140q-5 22 -53.5 133t-48.5 222q0 148 115.5 246t326.5 98q259 0 353 -97t94 -296h-255q0 78 -32 107t-90 29q-105 0 -106 -123q0 -36 13 -81.5t36 -95t41.5 -93.5t20.5 -49h233v-157h-209 l3 -90q0 -44 -3.5 -63t-16.5 -58q-19 -65 -45 -95q24 0 115 -14.5t124 -14.5q46 0 75.5 4t99.5 21t107 52l44 -222q-43 -44 -128.5 -84.5t-142.5 -53.5t-118 -13q-92 0 -236 49.5t-218 49.5q-111 0 -230 -85z" />
<glyph unicode="&#xa4;" horiz-adv-x="1148" d="M73 1094l145 139l160 -160q80 61 221 62q34 0 62 -3.5t53 -13.5q31 -9 53 -18.5t39 -22.5l160 160l140 -140l-164 -160l45 -85q26 -46 25 -107q0 -75 -17 -119t-58 -117l157 -157l-140 -134l-155 160q-68 -37 -94 -47.5t-58.5 -15t-61.5 -4.5q-117 0 -204 70l-163 -163 l-136 134l160 163q-73 85 -74 216q0 138 70 203zM373 713q0 -87 62 -148q70 -56 155 -56q105 0 160.5 61t55.5 143q0 87 -61 160t-155 73q-97 0 -157 -70t-60 -163z" />
<glyph unicode="&#xa5;" horiz-adv-x="1442" d="M37 1458h475l201 -364l189 364h495l-138 -237l-138 -240l-138 -239h208v-164h-249v-165h249v-163h-249v-250h-479v250h-264v163h264v165h-264v164h223z" />
<glyph unicode="&#xa6;" horiz-adv-x="653" d="M262 -413v852l163 -111v-741h-163zM262 827v668h163v-779z" />
<glyph unicode="&#xa7;" horiz-adv-x="1137" d="M87 495q0 105 32 174t94 117q-22 24 -33.5 38.5t-26 47.5t-14.5 99q0 225 112.5 282t189 75.5t161.5 18.5q238 0 354.5 -115.5t116.5 -260.5h-274q0 65 -55 112.5t-159 47.5q-66 0 -116.5 -26.5t-50.5 -89.5t168.5 -104.5t247 -65t173.5 -68t95 -212.5q0 -105 -34 -174 q-27 -63 -93 -121q73 -68 73 -180q0 -228 -152.5 -304.5t-310.5 -76.5q-238 0 -354.5 115t-116.5 266h276q0 -77 53.5 -120t158.5 -43q68 0 118.5 26.5t50.5 90.5q0 66 -220.5 119t-342 109t-121.5 223zM381 544q0 -78 71 -120q39 -20 82 -30t97 -10q94 0 134.5 34t40.5 97 q0 77 -72 118.5t-178 41.5q-94 0 -134.5 -34t-40.5 -97z" />
<glyph unicode="&#xa8;" horiz-adv-x="1122" d="M87 1291q0 80 55 138t137 58t136 -60q60 -54 60 -136q0 -80 -57 -137t-139 -57q-78 0 -135 55.5t-57 138.5zM614 1291q0 77 55.5 136.5t136.5 59.5q80 0 138 -60q60 -54 60 -136q0 -80 -58 -137t-140 -57q-77 0 -134.5 56t-57.5 138z" />
<glyph unicode="&#xa9;" horiz-adv-x="1508" d="M-17 745q0 323 229.5 552.5t558.5 229.5q323 0 552.5 -229.5t229.5 -552.5q0 -321 -229 -553.5t-553 -232.5q-327 0 -557.5 231.5t-230.5 554.5zM131 745q0 -260 186 -449t454 -189q262 0 448 184.5t186 453.5q0 262 -186 448.5t-448 186.5q-265 0 -452.5 -185 t-187.5 -450zM369 750q0 204 117.5 327.5t312.5 123.5q139 0 240 -77.5t128 -218.5h-175q-14 71 -68 112q-53 44 -130 44q-121 0 -169 -67t-64.5 -121.5t-16.5 -118.5q0 -116 70 -220q71 -95 189 -95q73 0 127.5 45t61.5 118h175q-14 -138 -119.5 -220.5t-244.5 -82.5 q-194 0 -314 129.5t-120 321.5z" />
<glyph unicode="&#xaa;" horiz-adv-x="935" d="M43 835q0 141 81.5 243t227.5 102q66 0 112 -23q46 -20 77 -62v77h301v-660h-301v78q-24 -41 -73.5 -68t-115.5 -27q-143 0 -228 100q-82 105 -81 240zM321 850q0 -56 26 -91.5t82 -35.5q46 0 75.5 37.5t29.5 89.5q0 48 -25.5 87t-79.5 39q-51 0 -79.5 -38.5t-28.5 -87.5 z" />
<glyph unicode="&#xab;" horiz-adv-x="1302" d="M49 544v165l504 364l136 -197l-357 -250l357 -257l-136 -192zM614 544v165l504 364l136 -197l-358 -250l358 -257l-136 -192z" />
<glyph unicode="&#xac;" horiz-adv-x="1195" d="M87 611v233h1031v-594h-233v361h-798z" />
<glyph unicode="&#xad;" horiz-adv-x="683" d="M70 425v279h556v-279h-556z" />
<glyph unicode="&#xae;" horiz-adv-x="1508" d="M-17 745q0 323 229.5 552.5t558.5 229.5q323 0 552.5 -229.5t229.5 -552.5q0 -321 -229 -553.5t-553 -232.5q-327 0 -557.5 231.5t-230.5 554.5zM131 745q0 -267 185.5 -452.5t454.5 -185.5q264 0 449 184t185 454q0 267 -186 451t-448 184q-264 0 -452 -184t-188 -451z M446 320v843h410q32 0 64.5 -1.5t75 -6.5t89.5 -32q49 -34 74 -91t25 -127q0 -230 -230 -230l204 -355h-192l-187 355h-168v-355h-165zM611 803h250q77 0 119 24q41 27 41 103q0 68 -58 91q-65 20 -148 20h-204v-238z" />
<glyph unicode="&#xb0;" horiz-adv-x="821" d="M111 1180q0 126 90 216.5t217 90.5q126 0 216.5 -90.5t90.5 -216.5q0 -128 -90.5 -217.5t-216.5 -89.5q-128 0 -217.5 86.5t-89.5 220.5zM233 1180q0 -78 53.5 -131.5t131.5 -53.5q77 0 131 53q53 56 53 132q0 75 -53.5 129.5t-130.5 54.5q-75 0 -130 -53.5t-55 -130.5z " />
<glyph unicode="&#xb1;" horiz-adv-x="1195" d="M99 -20h991v-247h-991v247zM99 599v245h372v372h245v-372h374v-245h-374v-374h-245v374h-372z" />
<glyph unicode="&#xb2;" horiz-adv-x="893" d="M37 512v158q196 134 299 241.5t138 169t35 110.5q0 92 -87 92q-41 0 -61.5 -34t-20.5 -96h-272q0 117 92 222t286 105t290.5 -74t96.5 -208q0 -160 -66 -219.5t-136.5 -117.5t-138.5 -109h341v-240h-796z" />
<glyph unicode="&#xb3;" horiz-adv-x="860" d="M58 806h272q0 -77 82 -76q80 0 80 93q0 58 -26.5 76t-94.5 18v194q65 0 93 14.5t28 60.5q0 80 -80 80q-37 0 -54.5 -18t-22.5 -62h-274q0 119 80 210.5t272 91.5q184 0 271 -69q90 -66 90 -196q0 -83 -39 -121.5t-116 -74.5q68 -17 126 -71t58 -151q0 -141 -98 -224 t-281 -83q-189 0 -277.5 94t-88.5 214z" />
<glyph unicode="&#xb4;" horiz-adv-x="573" d="M87 1237l233 238l105 -107l-233 -237z" />
<glyph unicode="&#xb5;" horiz-adv-x="1321" d="M94 434v566h455v-561q0 -56 26.5 -87.5t75.5 -31.5q51 0 81 32t30 87v561h454v-566q0 -209 -145.5 -336t-419.5 -127q-80 0 -131.5 7t-114.5 29v-458h-286v723q-26 77 -25 162z" />
<glyph unicode="&#xb6;" horiz-adv-x="1137" d="M51 1026q0 179 120 324t271 145h652v-148h-157v-1798h-146v1798h-172v-1798h-148v995q-172 15 -285 117.5t-125 219.5z" />
<glyph unicode="&#xb7;" horiz-adv-x="573" d="M134 771v297h308v-297h-308z" />
<glyph unicode="&#xb8;" horiz-adv-x="529" d="M119 -177l29 -15l32 -9q44 0 45 45q0 14 -17 32l-28 22l45 93h107l-45 -93q17 -9 28.5 -18t32.5 -34t21 -59q0 -53 -35 -81.5t-92 -28.5q-70 0 -123 41v105z" />
<glyph unicode="&#xb9;" horiz-adv-x="590" d="M92 1237v238h403v-963h-306v725h-97z" />
<glyph unicode="&#xba;" horiz-adv-x="830" d="M24 840q0 138 100.5 242t283.5 104q180 0 284 -103.5t104 -242.5q0 -75 -24 -133.5t-102 -137.5t-262 -79q-182 0 -284 102q-49 54 -74.5 114.5t-25.5 133.5zM308 840q0 -51 26.5 -89t73.5 -38q48 0 75 37t27 90q0 51 -25.5 88.5t-76.5 37.5q-46 0 -75 -39 q-26 -39 -25 -87z" />
<glyph unicode="&#xbb;" horiz-adv-x="1302" d="M49 369l364 257l-364 250l135 197l508 -364v-165l-508 -367zM626 369l361 257l-361 250l131 197l509 -364v-165l-509 -367z" />
<glyph unicode="&#xbc;" horiz-adv-x="1945" d="M92 1237v238h403v-963h-306v725h-97zM361 0l855 1495h181l-873 -1495h-163zM1022 170v220l313 573h432v-555h104v-238h-104v-170h-299v170h-446zM1332 408h136v274z" />
<glyph unicode="&#xbd;" horiz-adv-x="1986" d="M92 1237v238h403v-963h-306v725h-97zM361 0l855 1495h181l-873 -1495h-163zM1123 0v158q196 134 298.5 241.5t137.5 169t35 110.5q0 92 -87 92q-41 0 -61.5 -36t-20.5 -94h-272q0 117 92 222t288 105q192 0 289 -74t97 -208q0 -160 -58 -212t-133.5 -114t-150.5 -120h342 v-240h-796z" />
<glyph unicode="&#xbe;" horiz-adv-x="2170" d="M58 806h272q0 -77 82 -76q80 0 80 93q0 58 -26.5 76t-94.5 18v194q65 0 93 14.5t28 60.5q0 80 -80 80q-37 0 -54.5 -18t-22.5 -62h-274q0 119 80 210.5t272 91.5q184 0 271 -69q90 -66 90 -196q0 -83 -39 -121.5t-116 -74.5q68 -17 126 -71t58 -151q0 -141 -98 -224 t-281 -83q-189 0 -277.5 94t-88.5 214zM585 0l857 1495h181l-873 -1495h-165zM1247 170v220l313 573h432v-555h105v-238h-105v-170h-298v170h-447zM1556 408h138v274z" />
<glyph unicode="&#xbf;" horiz-adv-x="1302" d="M90 218q0 187 111 304.5t274 117.5v69h406v-296h-148q-88 0 -138.5 -47.5t-50.5 -147.5q0 -174 145 -174q73 0 103.5 36t30.5 109h414q0 -174 -140.5 -308t-421.5 -134q-289 0 -437 129t-148 342zM463 1021q0 92 64.5 158t156.5 66q88 0 154.5 -68t66.5 -156 t-65.5 -157.5t-155.5 -69.5q-92 0 -156.5 67.5t-64.5 159.5z" />
<glyph unicode="&#xc0;" horiz-adv-x="1576" d="M53 0l462 1458h541l463 -1458h-458l-78 213h-398l-73 -213h-459zM619 1827l106 107l238 -238l-107 -107zM684 532h201l-103 312z" />
<glyph unicode="&#xc1;" horiz-adv-x="1576" d="M53 0l462 1458h541l463 -1458h-458l-78 213h-398l-73 -213h-459zM599 1696l233 238l105 -107l-233 -238zM684 532h201l-103 312z" />
<glyph unicode="&#xc2;" horiz-adv-x="1576" d="M53 0l462 1458h541l463 -1458h-458l-78 213h-398l-73 -213h-459zM483 1658l262 259h70l250 -259l-94 -93l-189 192l-200 -197zM684 532h201l-103 312z" />
<glyph unicode="&#xc3;" horiz-adv-x="1576" d="M53 0l462 1458h541l463 -1458h-458l-78 213h-398l-73 -213h-459zM381 1733q46 51 108 88.5t142 37.5q58 0 151.5 -45t151.5 -45t98 18t65 43l75 -85q-56 -61 -110.5 -81.5t-124.5 -20.5q-73 0 -166.5 47t-139.5 47q-60 0 -102.5 -22.5t-82.5 -64.5zM684 532h201l-103 312 z" />
<glyph unicode="&#xc4;" horiz-adv-x="1576" d="M53 0l462 1458h541l463 -1458h-458l-78 213h-398l-73 -213h-459zM332 1749q0 78 55 137.5t137 59.5q80 0 138 -60q60 -56 59 -137q0 -82 -59 -136q-56 -56 -138 -57q-80 0 -136 55.5t-56 137.5zM684 532h201l-103 312zM861 1749q0 78 55 137.5t137 59.5q80 0 138 -58.5 t58 -138.5q0 -83 -58 -136q-56 -56 -138 -57q-78 0 -135 55.5t-57 137.5z" />
<glyph unicode="&#xc5;" horiz-adv-x="1576" d="M53 0l462 1458h541l463 -1458h-458l-78 213h-398l-73 -213h-459zM556 1757q0 83 63 148t146 65q87 0 134.5 -48t64 -83.5t16.5 -81.5q0 -87 -63 -148t-152 -61q-85 0 -147 62t-62 147zM651 1757q0 -49 31.5 -84t82.5 -35q29 0 48 7.5t46 35t27 76.5t-34 83q-31 36 -87 36 q-44 0 -79 -35t-35 -84zM684 532h201l-103 312z" />
<glyph unicode="&#xc6;" horiz-adv-x="1920" d="M41 0l558 1458h1175v-361h-471v-195h451v-361h-456v-177h476v-364h-939v221h-245l-75 -221h-474zM696 541h139v417z" />
<glyph unicode="&#xc7;" horiz-adv-x="1166" d="M53 730q0 151 51 280.5t210 297t526 167.5q54 0 96 -7l100 -14v-491q-9 3 -30 8t-59.5 14.5t-111.5 9.5q-124 0 -193 -74t-69 -191q0 -111 67.5 -186.5t194.5 -75.5h21q22 0 48 0.5t59.5 6.5t72.5 25v-509l-83 -10l-113 -5l-107 5l-37 -78q32 -15 57.5 -45t25.5 -66 q0 -51 -25.5 -73t-46.5 -28t-56 -9q-68 0 -122 41v107l27 -17l34 -7q44 0 44 44q0 14 -18 31l-26 22l44 95q-276 60 -428.5 265.5t-152.5 466.5z" />
<glyph unicode="&#xc8;" horiz-adv-x="1143" d="M94 0v1458h939v-361h-477v-192h451v-361h-451v-180h477v-364h-939zM393 1827l107 107l237 -238l-106 -107z" />
<glyph unicode="&#xc9;" horiz-adv-x="1143" d="M94 0v1458h939v-361h-477v-192h451v-361h-451v-180h477v-364h-939zM413 1696l233 238l108 -107l-233 -238z" />
<glyph unicode="&#xca;" horiz-adv-x="1143" d="M94 0v1458h939v-361h-477v-192h451v-361h-451v-180h477v-364h-939zM259 1658l262 259h69l250 -259l-95 -93l-189 192l-200 -197z" />
<glyph unicode="&#xcb;" horiz-adv-x="1143" d="M87 1749q0 82 55 139.5t137 57.5t136 -60q60 -56 60 -137q0 -82 -60 -136q-54 -56 -136 -57q-78 0 -135 55t-57 138zM94 0v1458h939v-361h-477v-192h451v-361h-451v-180h477v-364h-939zM614 1749q0 78 55.5 137.5t136.5 59.5q80 0 138 -60q60 -56 60 -137q0 -82 -60 -136 q-56 -56 -138 -57q-77 0 -134.5 55.5t-57.5 137.5z" />
<glyph unicode="&#xcc;" horiz-adv-x="756" d="M114 0v1458h468v-1458h-468zM168 1827l106 107l238 -238l-107 -107z" />
<glyph unicode="&#xcd;" horiz-adv-x="756" d="M114 0v1458h468v-1458h-468zM168 1696l233 238l108 -107l-235 -238z" />
<glyph unicode="&#xce;" horiz-adv-x="756" d="M53 1658l262 259h69l250 -259l-93 -93l-189 192l-201 -197zM114 0v1458h468v-1458h-468z" />
<glyph unicode="&#xcf;" horiz-adv-x="756" d="M-104 1749q0 82 56.5 139.5t135.5 57.5q82 0 137 -60q60 -56 59 -137q0 -83 -59 -136q-54 -56 -137 -57q-80 0 -136 56.5t-56 136.5zM114 0v1458h468v-1458h-468zM424 1749q0 78 55 137.5t137 59.5q80 0 138 -60q60 -56 59 -137q0 -82 -59 -136q-56 -56 -138 -57 q-77 0 -134.5 55.5t-57.5 137.5z" />
<glyph unicode="&#xd0;" horiz-adv-x="1532" d="M2 745v279h129v434h532q361 0 561.5 -208.5t200.5 -504.5t-202 -520.5t-560 -224.5h-532v745h-129zM599 468h64q133 0 208 82.5t75 194.5q0 114 -75 201t-208 87h-64v-565z" />
<glyph unicode="&#xd1;" horiz-adv-x="1556" d="M87 0v1458h434l471 -704v704h462v-1458h-462l-443 668v-668h-462zM361 1733q46 51 108 88.5t142 37.5q58 0 152 -45t150 -45q58 0 85.5 12t47 24.5t31.5 24.5l75 -85q-56 -61 -110.5 -81.5t-124.5 -20.5q-73 0 -166.5 47t-139.5 47q-60 0 -102.5 -22.5t-83.5 -64.5z" />
<glyph unicode="&#xd2;" horiz-adv-x="1646" d="M41 725q0 301 205 525.5t565 224.5q362 0 568 -224t206 -526q0 -299 -204 -524t-570 -225q-362 0 -566 221.5t-204 527.5zM561 725q0 -124 65.5 -218t184.5 -94q117 0 189 92q34 49 51 101.5t17 118.5q0 128 -69 223.5t-188 95.5t-184.5 -95t-65.5 -224zM680 1827 l106 107l238 -238l-107 -107z" />
<glyph unicode="&#xd3;" horiz-adv-x="1646" d="M41 725q0 301 205 525.5t565 224.5q362 0 568 -224t206 -526q0 -299 -204 -524t-570 -225q-362 0 -566 221.5t-204 527.5zM561 725q0 -124 65.5 -218t184.5 -94q117 0 189 92q34 49 51 101.5t17 118.5q0 128 -69 223.5t-188 95.5t-184.5 -95t-65.5 -224zM578 1696 l233 238l106 -107l-233 -238z" />
<glyph unicode="&#xd4;" horiz-adv-x="1646" d="M41 725q0 301 205 525.5t565 224.5q362 0 568 -224t206 -526q0 -299 -204 -524t-570 -225q-362 0 -566 221.5t-204 527.5zM503 1658l262 259h70l250 -259l-93 -93l-189 192l-201 -197zM561 725q0 -124 65.5 -218t184.5 -94q117 0 189 92q34 49 51 101.5t17 118.5 q0 128 -69 223.5t-188 95.5t-184.5 -95t-65.5 -224z" />
<glyph unicode="&#xd5;" horiz-adv-x="1646" d="M41 725q0 301 205 525.5t565 224.5q362 0 568 -224t206 -526q0 -299 -204 -524t-570 -225q-362 0 -566 221.5t-204 527.5zM463 1733q46 51 108 88.5t142 37.5q60 0 152.5 -45t149.5 -45q58 0 95.5 16t69.5 45l74 -85q-58 -63 -112.5 -82.5t-120.5 -19.5q-37 0 -76.5 10.5 t-112.5 47t-119 36.5q-60 0 -105 -24t-79 -63zM561 725q0 -124 65.5 -218t184.5 -94q117 0 189 92q34 49 51 101.5t17 118.5q0 128 -69 223.5t-188 95.5t-184.5 -95t-65.5 -224z" />
<glyph unicode="&#xd6;" horiz-adv-x="1646" d="M41 725q0 301 205 525.5t565 224.5q362 0 568 -224t206 -526q0 -299 -204 -524t-570 -225q-362 0 -566 221.5t-204 527.5zM352 1749q0 78 55.5 137.5t136.5 59.5q80 0 138 -60q60 -56 60 -137q0 -82 -60 -136q-56 -56 -138 -57q-80 0 -136 55.5t-56 137.5zM561 725 q0 -124 65.5 -218t184.5 -94q117 0 189 92q34 49 51 101.5t17 118.5q0 128 -69 223.5t-188 95.5t-184.5 -95t-65.5 -224zM881 1749q0 78 55.5 137.5t136.5 59.5q80 0 138 -58.5t58 -138.5q0 -83 -58 -136q-56 -56 -138 -57q-78 0 -135 55.5t-57 137.5z" />
<glyph unicode="&#xd7;" horiz-adv-x="1195" d="M119 153l322 322l-322 321l174 175l321 -321l322 321l175 -175l-322 -321l322 -322l-175 -173l-322 321l-321 -321z" />
<glyph unicode="&#xd8;" horiz-adv-x="1646" d="M41 725q0 301 205 525.5t565 224.5q95 0 176 -17q44 -7 83 -17t76 -29l131 226h181l-175 -303q146 -104 224 -266t78 -344q0 -299 -204 -524t-570 -225q-85 0 -153.5 10.5t-136.5 35.5l-150 -257h-163l182 318q-168 100 -258.5 274t-90.5 368zM561 725q0 -132 68 -222 l293 514q-51 27 -111 27q-119 0 -184.5 -95t-65.5 -224zM752 420l59 -7q117 0 189 92q34 49 51 101t17 119q0 98 -37 175z" />
<glyph unicode="&#xd9;" horiz-adv-x="1352" d="M73 468v990h468v-955q0 -51 31.5 -82t87.5 -31q54 0 90 29.5t36 83.5v955h468v-990q0 -226 -173 -357t-421 -131q-245 0 -416 128.5t-171 359.5zM495 1827l107 107l238 -238l-107 -107z" />
<glyph unicode="&#xda;" horiz-adv-x="1352" d="M73 468v990h468v-955q0 -51 31.5 -82t87.5 -31q54 0 90 29.5t36 83.5v955h468v-990q0 -226 -173 -357t-421 -131q-245 0 -416 128.5t-171 359.5zM475 1696l234 238l106 -107l-233 -238z" />
<glyph unicode="&#xdb;" horiz-adv-x="1352" d="M73 468v990h468v-955q0 -51 31.5 -82t87.5 -31q54 0 90 29.5t36 83.5v955h468v-990q0 -226 -173 -357t-421 -131q-245 0 -416 128.5t-171 359.5zM361 1658l262 259h69l250 -259l-95 -93l-187 192l-201 -197z" />
<glyph unicode="&#xdc;" horiz-adv-x="1352" d="M73 468v990h468v-955q0 -51 31.5 -82t87.5 -31q54 0 90 29.5t36 83.5v955h468v-990q0 -226 -173 -357t-421 -131q-245 0 -416 128.5t-171 359.5zM189 1749q0 78 55 137.5t137 59.5q80 0 138.5 -59.5t58.5 -137.5q0 -82 -59 -136q-56 -56 -138 -57q-78 0 -135 55.5 t-57 137.5zM716 1749q0 78 56 137.5t138 59.5q78 0 136 -60q60 -56 60 -137q0 -82 -60 -136q-54 -56 -136 -57q-78 0 -136 55.5t-58 137.5z" />
<glyph unicode="&#xdd;" horiz-adv-x="1442" d="M37 1458h475l201 -364l189 364h495l-455 -790v-668h-479v668zM536 1696l235 238l105 -107l-233 -238z" />
<glyph unicode="&#xde;" horiz-adv-x="1302" d="M90 0v1458h470v-230h185q196 0 298.5 -92.5t137.5 -176t35 -185.5q0 -221 -104.5 -308.5t-193 -116.5t-202.5 -29h-160v-320h-466zM556 668h78q111 1 111 106q0 49 -31.5 80t-79.5 31h-78v-217z" />
<glyph unicode="&#xdf;" horiz-adv-x="1692" d="M70 692v308h114q0 221 183.5 349.5t455.5 128.5t449 -103.5t177 -277.5q0 -111 -32 -168.5t-102 -93.5q116 -31 197.5 -127.5t81.5 -282.5q0 -218 -155.5 -321.5t-353.5 -103.5h-286v311h138q185 0 186 184q0 88 -72.5 138.5t-230.5 50.5v253q78 0 108 28t30 91 q0 51 -40 83.5t-103 32.5q-75 0 -122 -37.5t-47 -98.5v-1036h-462v692h-114z" />
<glyph unicode="&#xe0;" horiz-adv-x="1416" d="M66 492q0 209 122.5 364.5t343.5 155.5q100 0 171 -36q71 -32 117 -91v115h454v-1000h-454v119q-41 -66 -110.5 -104.5t-177.5 -38.5q-225 0 -345.5 152.5t-120.5 363.5zM488 512q0 -43 9.5 -75t41 -74.5t107.5 -42.5q75 0 121 54q44 58 44 138q0 77 -44 134 q-39 58 -121 58q-71 0 -114.5 -56t-43.5 -136zM495 1368l107 107l238 -238l-107 -106z" />
<glyph unicode="&#xe1;" horiz-adv-x="1416" d="M66 492q0 209 122.5 364.5t343.5 155.5q100 0 171 -36q71 -32 117 -91v115h454v-1000h-454v119q-41 -66 -110.5 -104.5t-177.5 -38.5q-225 0 -345.5 152.5t-120.5 363.5zM488 512q0 -43 9.5 -75t41 -74.5t107.5 -42.5q75 0 121 54q44 58 44 138q0 77 -44 134 q-39 58 -121 58q-71 0 -114.5 -56t-43.5 -136zM515 1237l235 238l106 -107l-233 -237z" />
<glyph unicode="&#xe2;" horiz-adv-x="1416" d="M66 492q0 209 122.5 364.5t343.5 155.5q100 0 171 -36q71 -32 117 -91v115h454v-1000h-454v119q-41 -66 -110.5 -104.5t-177.5 -38.5q-225 0 -345.5 152.5t-120.5 363.5zM361 1201l262 257h69l250 -257l-95 -95l-187 192l-201 -196zM488 512q0 -43 9.5 -75t41 -74.5 t107.5 -42.5q75 0 121 54q44 58 44 138q0 77 -44 134q-39 58 -121 58q-71 0 -114.5 -56t-43.5 -136z" />
<glyph unicode="&#xe3;" horiz-adv-x="1416" d="M66 492q0 209 122.5 364.5t343.5 155.5q100 0 171 -36q71 -32 117 -91v115h454v-1000h-454v119q-41 -66 -110.5 -104.5t-177.5 -38.5q-225 0 -345.5 152.5t-120.5 363.5zM299 1274q44 49 106 88q66 39 144 40q54 0 147 -45.5t156 -45.5q46 0 59.5 3t44.5 16.5t59 42.5 l75 -87q-56 -61 -113.5 -81.5t-120.5 -20.5q-37 0 -76.5 11t-110.5 46.5t-120 35.5q-60 0 -97 -18.5t-48 -28t-40 -38.5zM488 512q0 -43 9.5 -75t41 -74.5t107.5 -42.5q75 0 121 54q44 58 44 138q0 77 -44 134q-39 58 -121 58q-71 0 -114.5 -56t-43.5 -136z" />
<glyph unicode="&#xe4;" horiz-adv-x="1416" d="M66 492q0 209 122.5 364.5t343.5 155.5q100 0 171 -36q71 -32 117 -91v115h454v-1000h-454v119q-41 -66 -110.5 -104.5t-177.5 -38.5q-225 0 -345.5 152.5t-120.5 363.5zM230 1291q0 77 55 136.5t137 59.5q80 0 138 -60q60 -54 59 -136q0 -80 -58 -137t-139 -57 q-78 0 -138 56q-54 58 -54 138zM488 512q0 -43 9.5 -75t41 -74.5t107.5 -42.5q75 0 121 54q44 58 44 138q0 77 -44 134q-39 58 -121 58q-71 0 -114.5 -56t-43.5 -136zM757 1291q0 77 56 136.5t138 59.5q78 0 136 -60q60 -54 59 -136q0 -80 -56.5 -137t-138.5 -57 q-78 0 -136 56t-58 138z" />
<glyph unicode="&#xe5;" horiz-adv-x="1416" d="M66 492q0 209 122.5 364.5t343.5 155.5q100 0 171 -36q71 -32 117 -91v115h454v-1000h-454v119q-41 -66 -110.5 -104.5t-177.5 -38.5q-225 0 -345.5 152.5t-120.5 363.5zM454 1298q0 85 47 133.5t82.5 64.5t79.5 16q87 0 150 -63.5t63 -150.5q0 -85 -62 -146.5 t-151 -61.5q-87 0 -148 61.5t-61 146.5zM488 512q0 -43 9.5 -75t41 -74.5t107.5 -42.5q75 0 121 54q44 58 44 138q0 77 -44 134q-39 58 -121 58q-71 0 -114.5 -56t-43.5 -136zM549 1298q0 -49 31.5 -83.5t82.5 -34.5t86 34.5t35 83.5t-32 84t-89 35q-44 0 -70.5 -26.5 t-35 -45t-8.5 -47.5z" />
<glyph unicode="&#xe6;" horiz-adv-x="2150" d="M66 492q0 209 122.5 364.5t343.5 155.5q102 0 175.5 -31.5t112.5 -87.5v107h306v-104q43 46 141.5 82.5t198.5 36.5q296 0 439 -157t143 -416h-709q0 -107 27 -161q29 -51 117 -51q53 0 82 23q14 15 25.5 33t23.5 46l425 -53q-31 -68 -80 -124t-152.5 -124t-343.5 -68 q-114 0 -188 33t-149 103v-99h-306v119q-41 -66 -110.5 -104.5t-177.5 -38.5q-225 0 -345.5 152.5t-120.5 363.5zM488 512q0 -43 9.5 -75t41 -74.5t107.5 -42.5q75 0 121 54q44 58 44 138q0 77 -44 134q-39 58 -121 58q-71 0 -114.5 -56t-43.5 -136zM1347 631h271 q0 46 -36.5 86t-103.5 40q-63 0 -98 -41q-32 -41 -33 -85z" />
<glyph unicode="&#xe7;" horiz-adv-x="867" d="M53 492q0 211 126.5 365.5t349.5 154.5q97 0 163 -17q36 -7 63 -15.5t65 -25.5v-303q-32 22 -60.5 35t-47 18t-40.5 5q-78 0 -125 -63.5t-47 -145.5q0 -87 44.5 -148t127.5 -61q58 0 87.5 17t60.5 48v-312q-27 -10 -49.5 -20t-49.5 -24q-73 -27 -153 -27l-36 -75 q29 -15 58 -46q24 -32 24 -65q0 -53 -35.5 -81.5t-90.5 -28.5q-71 0 -124 41v105l29 -15l32 -9q46 0 46 45q0 10 -19 32l-27 22l38 78q-192 20 -301 171t-109 345z" />
<glyph unicode="&#xe8;" horiz-adv-x="1236" d="M32 488q0 214 150.5 370.5t423.5 156.5q294 0 437.5 -156t143.5 -417h-707q0 -97 25 -158q29 -54 118 -54q53 0 81 23q26 26 50 79l426 -53q-34 -71 -80.5 -125t-151 -122.5t-346.5 -68.5q-264 0 -417 155.5t-153 369.5zM454 1368l107 107l238 -238l-107 -106zM488 631 h269q0 44 -37.5 85t-100.5 41q-65 0 -98 -41t-33 -85z" />
<glyph unicode="&#xe9;" horiz-adv-x="1236" d="M32 488q0 214 150.5 370.5t423.5 156.5q294 0 437.5 -156t143.5 -417h-707q0 -97 25 -158q29 -54 118 -54q53 0 81 23q26 26 50 79l426 -53q-34 -71 -80.5 -125t-151 -122.5t-346.5 -68.5q-264 0 -417 155.5t-153 369.5zM413 1237l233 238l108 -107l-233 -237zM488 631 h269q0 44 -37.5 85t-100.5 41q-65 0 -98 -41t-33 -85z" />
<glyph unicode="&#xea;" horiz-adv-x="1236" d="M32 488q0 214 150.5 370.5t423.5 156.5q294 0 437.5 -156t143.5 -417h-707q0 -97 25 -158q29 -54 118 -54q53 0 81 23q26 26 50 79l426 -53q-34 -71 -80.5 -125t-151 -122.5t-346.5 -68.5q-264 0 -417 155.5t-153 369.5zM299 1201l262 257h70l250 -257l-95 -95l-187 192 l-201 -196zM488 631h269q0 44 -37.5 85t-100.5 41q-65 0 -98 -41t-33 -85z" />
<glyph unicode="&#xeb;" horiz-adv-x="1236" d="M32 488q0 214 150.5 370.5t423.5 156.5q294 0 437.5 -156t143.5 -417h-707q0 -97 25 -158q29 -54 118 -54q53 0 81 23q26 26 50 79l426 -53q-34 -71 -80.5 -125t-151 -122.5t-346.5 -68.5q-264 0 -417 155.5t-153 369.5zM148 1291q0 77 55.5 136.5t136.5 59.5 q80 0 138 -60q58 -54 58 -136t-57 -138t-139 -56q-78 0 -138 56q-54 58 -54 138zM488 631h269q0 44 -37.5 85t-100.5 41q-65 0 -98 -41t-33 -85zM675 1291q0 77 55.5 136.5t137.5 59.5q80 0 137 -60q60 -54 60 -136q0 -80 -58 -137t-139 -57q-77 0 -135 56t-58 138z" />
<glyph unicode="&#xec;" horiz-adv-x="733" d="M114 0v1000h468v-1000h-468zM168 1368l106 107l238 -238l-107 -106z" />
<glyph unicode="&#xed;" horiz-adv-x="733" d="M114 0v1000h468v-1000h-468zM168 1237l233 238l108 -107l-235 -237z" />
<glyph unicode="&#xee;" horiz-adv-x="733" d="M53 1201l262 257h69l250 -257l-93 -95l-189 192l-201 -196zM114 0v1000h468v-1000h-468z" />
<glyph unicode="&#xef;" horiz-adv-x="733" d="M-99 1291q0 78 57 137t136 59q80 0 137 -60q60 -54 60 -136q0 -80 -58 -137t-139 -57q-78 0 -135.5 57t-57.5 137zM114 0v1000h468v-1000h-468zM430 1291q0 77 55.5 136.5t137.5 59.5q80 0 137 -60q60 -54 60 -136q0 -80 -58 -137t-139 -57q-78 0 -138 56q-55 58 -55 138 z" />
<glyph unicode="&#xf1;" horiz-adv-x="1396" d="M111 0v1000h467v-148q49 71 141 117t215 46q172 0 257.5 -93.5t85.5 -258.5v-663h-466v606q0 53 -25 97q-20 43 -94 42q-58 0 -86 -47.5t-28 -91.5v-606h-467zM259 1274q44 49 105 88q66 39 145 40q54 0 146.5 -45.5t155.5 -45.5q39 0 56.5 3t48 16.5t59.5 42.5l73 -87 q-53 -61 -111.5 -81.5t-121.5 -20.5q-37 0 -76.5 11t-110 46.5t-119.5 35.5q-60 0 -97.5 -18.5t-48.5 -28t-40 -38.5z" />
<glyph unicode="&#xf2;" horiz-adv-x="1257" d="M37 495q0 218 154 372t428 154q272 0 430.5 -156t158.5 -370q0 -211 -154 -369t-435 -158q-270 0 -426 159t-156 368zM468 495q0 -43 8.5 -73.5t32.5 -60.5q39 -58 110 -58t113 57t42 135q0 82 -41 136q-37 58 -114 58q-70 0 -110.5 -57t-40.5 -137zM475 1368l107 107 l238 -238l-107 -106z" />
<glyph unicode="&#xf3;" horiz-adv-x="1257" d="M37 495q0 218 154 372t428 154q272 0 430.5 -156t158.5 -370q0 -211 -154 -369t-435 -158q-270 0 -426 159t-156 368zM393 1237l233 238l107 -107l-233 -237zM468 495q0 -43 8.5 -73.5t32.5 -60.5q39 -58 110 -58t113 57t42 135q0 82 -41 136q-37 58 -114 58 q-70 0 -110.5 -57t-40.5 -137z" />
<glyph unicode="&#xf4;" horiz-adv-x="1257" d="M37 495q0 218 154 372t428 154q272 0 430.5 -156t158.5 -370q0 -211 -154 -369t-435 -158q-270 0 -426 159t-156 368zM299 1201l262 257h70l250 -257l-95 -95l-187 192l-201 -196zM468 495q0 -43 8.5 -73.5t32.5 -60.5q39 -58 110 -58t113 57t42 135q0 82 -41 136 q-37 58 -114 58q-70 0 -110.5 -57t-40.5 -137z" />
<glyph unicode="&#xf5;" horiz-adv-x="1257" d="M37 495q0 218 154 372t428 154q272 0 430.5 -156t158.5 -370q0 -211 -154 -369t-435 -158q-270 0 -426 159t-156 368zM238 1274q44 49 106 88q66 39 144 40q54 0 147 -45.5t156 -45.5q39 0 56 3t47.5 16.5t59.5 42.5l73 -87q-53 -61 -111.5 -81.5t-121.5 -20.5 q-37 0 -76 11t-110 46.5t-120 35.5q-60 0 -97 -18.5t-48 -28t-40 -38.5zM468 495q0 -43 8.5 -73.5t32.5 -60.5q39 -58 110 -58t113 57t42 135q0 82 -41 136q-37 58 -114 58q-70 0 -110.5 -57t-40.5 -137z" />
<glyph unicode="&#xf6;" horiz-adv-x="1257" d="M37 495q0 218 154 372t428 154q272 0 430.5 -156t158.5 -370q0 -211 -154 -369t-435 -158q-270 0 -426 159t-156 368zM148 1291q0 77 55.5 136.5t136.5 59.5q80 0 138 -60q58 -54 58 -136t-57 -138t-139 -56q-78 0 -138 56q-54 58 -54 138zM468 495q0 -43 8.5 -73.5 t32.5 -60.5q39 -58 110 -58t113 57t42 135q0 82 -41 136q-37 58 -114 58q-70 0 -110.5 -57t-40.5 -137zM675 1291q0 77 55.5 136.5t137.5 59.5q80 0 137 -60q60 -54 60 -136q0 -80 -58 -137t-139 -57q-77 0 -135 56t-58 138z" />
<glyph unicode="&#xf7;" horiz-adv-x="1195" d="M111 410v245h991v-245h-991zM459 0v299h306v-299h-306zM459 771v297h306v-297h-306z" />
<glyph unicode="&#xf8;" horiz-adv-x="1257" d="M37 495q0 218 154 372t428 154q116 0 213 -29l149 257h181l-194 -319q116 -73 178 -189.5t62 -245.5q0 -211 -154 -369t-435 -158l-95 5q-22 3 -45 6.5t-45 10.5l-140 -233h-172l171 292q-122 71 -189 190.5t-67 255.5zM468 495q0 -43 8.5 -73.5t32.5 -60.5 q39 -58 110 -58t113 57t42 135q0 82 -41 136q-37 58 -114 58q-70 0 -110.5 -57t-40.5 -137z" />
<glyph unicode="&#xf9;" horiz-adv-x="1326" d="M94 434v566h455v-561q0 -56 26.5 -87.5t75.5 -31.5q51 0 81 32t30 87v561h454v-566q0 -209 -145.5 -336t-419.5 -127q-270 0 -413.5 124.5t-143.5 338.5zM475 1368l107 107l238 -238l-107 -106z" />
<glyph unicode="&#xfa;" horiz-adv-x="1326" d="M94 434v566h455v-561q0 -56 26.5 -87.5t75.5 -31.5q51 0 81 32t30 87v561h454v-566q0 -209 -145.5 -336t-419.5 -127q-270 0 -413.5 124.5t-143.5 338.5zM454 1237l235 238l105 -107l-233 -237z" />
<glyph unicode="&#xfb;" horiz-adv-x="1326" d="M94 434v566h455v-561q0 -56 26.5 -87.5t75.5 -31.5q51 0 81 32t30 87v561h454v-566q0 -209 -145.5 -336t-419.5 -127q-270 0 -413.5 124.5t-143.5 338.5zM340 1201l262 257h70l250 -257l-95 -95l-187 192l-201 -196z" />
<glyph unicode="&#xfc;" horiz-adv-x="1326" d="M94 434v566h455v-561q0 -56 26.5 -87.5t75.5 -31.5q51 0 81 32t30 87v561h454v-566q0 -209 -145.5 -336t-419.5 -127q-270 0 -413.5 124.5t-143.5 338.5zM194 1291q0 77 56 136.5t138 59.5q78 0 136 -60q60 -54 59 -136q0 -80 -57 -137t-138 -57q-78 0 -136 56t-58 138z M723 1291q0 77 55 136.5t137 59.5q80 0 138 -60q60 -54 59 -136q0 -80 -57.5 -137t-139.5 -57q-80 0 -136 56t-56 138z" />
<glyph unicode="&#xfd;" horiz-adv-x="1302" d="M29 1000h480l125 -381l148 381h467l-630 -1422h-459l245 561zM454 1237l235 238l105 -107l-233 -237z" />
<glyph unicode="&#xfe;" horiz-adv-x="1416" d="M128 -422v1830h462v-532q51 61 117.5 100t165.5 39q214 0 336.5 -155.5t122.5 -364.5q0 -214 -119 -369t-340 -155q-95 0 -159 31.5t-124 96.5v-521h-462zM582 488q0 -73 38 -126.5t113 -53.5t116 52.5t41 127.5t-43 128q-36 56 -114 56q-73 0 -112 -54.5t-39 -129.5z " />
<glyph unicode="&#xff;" horiz-adv-x="1302" d="M29 1000h480l125 -381l148 381h467l-630 -1422h-459l245 561zM209 1291q0 77 55.5 136.5t136.5 59.5q80 0 138 -60q60 -54 60 -136q0 -80 -58 -137t-140 -57q-78 0 -137 56q-55 58 -55 138zM737 1291q0 77 56 136.5t137 59.5q78 0 137 -60q60 -54 59 -136q0 -80 -57 -137 t-139 -57q-78 0 -135.5 56t-57.5 138z" />
<glyph unicode="&#x152;" horiz-adv-x="2469" d="M49 725q0 301 153.5 469t293.5 224.5t324 56.5q216 0 373 -77t261 -218v278h938v-361h-472v-192h448v-361h-448v-180h472v-364h-938v279q-104 -139 -262.5 -221t-371.5 -82q-362 0 -566.5 221t-204.5 528zM570 725q0 -124 65.5 -218t184.5 -94q117 0 187 94t70 218 q0 128 -68 223.5t-189 95.5q-119 0 -184.5 -95t-65.5 -224z" />
<glyph unicode="&#x153;" horiz-adv-x="1990" d="M37 495q0 218 154 372t428 154q104 0 186 -24q85 -17 158 -63q60 32 147.5 56.5t180.5 24.5q293 0 436.5 -154.5t143.5 -418.5h-708q0 -119 40 -165q36 -48 103 -47q53 0 75 19.5t33 35.5t23 47l427 -53q-61 -134 -199 -225t-379 -91q-95 0 -179.5 23t-152.5 72 q-49 -36 -145 -63t-190 -27q-270 0 -426 159t-156 368zM468 495q0 -43 8.5 -73.5t32.5 -60.5q39 -58 110 -58t113 57t42 135q0 82 -41 136q-37 58 -114 58q-70 0 -110.5 -57t-40.5 -137zM1172 631h270q0 43 -38 84.5t-101 41.5q-65 0 -98 -41t-33 -85z" />
<glyph unicode="&#x178;" horiz-adv-x="1442" d="M37 1458h475l201 -364l189 364h495l-455 -790v-668h-479v668zM250 1749q0 78 55.5 137.5t136.5 59.5q80 0 138 -60q60 -56 60 -137q0 -82 -60 -136q-56 -56 -138 -57q-78 0 -135 55.5t-57 137.5zM779 1749q0 82 55.5 139.5t136.5 57.5q78 0 136 -60q60 -56 60 -137 q0 -82 -60 -136q-54 -56 -136 -57q-78 0 -135 55t-57 138z" />
<glyph unicode="&#x2000;" horiz-adv-x="985" />
<glyph unicode="&#x2001;" horiz-adv-x="1970" />
<glyph unicode="&#x2002;" horiz-adv-x="985" />
<glyph unicode="&#x2003;" horiz-adv-x="1970" />
<glyph unicode="&#x2004;" horiz-adv-x="656" />
<glyph unicode="&#x2005;" horiz-adv-x="492" />
<glyph unicode="&#x2006;" horiz-adv-x="328" />
<glyph unicode="&#x2007;" horiz-adv-x="328" />
<glyph unicode="&#x2008;" horiz-adv-x="246" />
<glyph unicode="&#x2009;" horiz-adv-x="394" />
<glyph unicode="&#x200a;" horiz-adv-x="109" />
<glyph unicode="&#x2010;" horiz-adv-x="683" d="M70 425v279h556v-279h-556z" />
<glyph unicode="&#x2011;" horiz-adv-x="683" d="M70 425v279h556v-279h-556z" />
<glyph unicode="&#x2012;" horiz-adv-x="683" d="M70 425v279h556v-279h-556z" />
<glyph unicode="&#x2013;" horiz-adv-x="1024" d="M0 425v218h1024v-218h-1024z" />
<glyph unicode="&#x2014;" horiz-adv-x="2048" d="M0 425v218h2048v-218h-2048z" />
<glyph unicode="&#x2018;" horiz-adv-x="535" d="M107 1204v295h257v-208h-90v-87q0 -43 15 -60.5t32 -30t31 -19.5l-85 -119q-34 17 -58 35.5t-63 59.5t-39 134z" />
<glyph unicode="&#x2019;" horiz-adv-x="535" d="M128 1291v208h256v-295q0 -71 -28 -111t-61 -66t-77 -52l-87 119q41 14 61 41q26 26 26 73v83h-90z" />
<glyph unicode="&#x201a;" horiz-adv-x="500" d="M128 -2v210h256v-296q0 -73 -39 -125q-33 -52 -127 -105l-87 119q41 14 61 41q26 26 26 75v81h-90z" />
<glyph unicode="&#x201c;" horiz-adv-x="893" d="M107 1204v295h257v-208h-90v-87q0 -43 15 -60.5t32 -30t31 -19.5l-85 -119q-34 17 -58 35.5t-63 59.5t-39 134zM512 1204v295h259v-208h-91v-83q0 -48 19 -72t63 -42l-87 -119q-63 32 -113 85.5t-50 143.5z" />
<glyph unicode="&#x201d;" horiz-adv-x="893" d="M128 1291v208h256v-295q0 -71 -28 -111t-61 -66t-77 -52l-87 119q41 14 61 41q26 26 26 73v83h-90zM532 1291v208h259v-295q0 -94 -35.5 -131t-63 -57.5t-66.5 -40.5l-85 119q48 26 65 50.5t17 59.5v87h-91z" />
<glyph unicode="&#x201e;" horiz-adv-x="893" d="M128 -2v210h256v-296q0 -73 -39 -125q-33 -52 -127 -105l-87 119q41 14 61 41q26 26 26 75v81h-90zM532 -2v210h259v-296q0 -94 -46 -140.5t-119 -89.5l-85 119q48 26 65 51.5t17 59.5v86h-91z" />
<glyph unicode="&#x2022;" horiz-adv-x="719" d="M114 614q0 104 75.5 181.5t183.5 77.5q104 0 178.5 -76t74.5 -183q0 -105 -74 -179t-179 -74q-54 0 -100.5 17.5t-102.5 73t-56 162.5z" />
<glyph unicode="&#x2026;" horiz-adv-x="2048" d="M197 0v299h306v-299h-306zM881 0v299h306v-299h-306zM1560 0v299h308v-299h-308z" />
<glyph unicode="&#x202f;" horiz-adv-x="394" />
<glyph unicode="&#x2039;" horiz-adv-x="782" d="M49 544v165l504 364l136 -197l-357 -250l357 -257l-136 -192z" />
<glyph unicode="&#x203a;" horiz-adv-x="782" d="M49 369l364 257l-364 250l135 197l508 -364v-165l-508 -367z" />
<glyph unicode="&#x205f;" horiz-adv-x="492" />
<glyph unicode="&#x2122;" horiz-adv-x="2048" d="M156 1368v159h700v-159h-250v-667h-201v667h-249zM958 701v826h291l185 -491l189 491h291v-826h-181v667l-246 -667h-107l-242 667v-667h-180z" />
<glyph unicode="&#xe000;" horiz-adv-x="1114" d="M0 0v1114h1114v-1114h-1114z" />
</font>
</defs>
</svg>
